<svg xmlns="http://www.w3.org/2000/svg" xmlns:xlink="http://www.w3.org/1999/xlink" width="1080" zoomAndPan="magnify" viewBox="0 0 810 1439.999935" height="1920" preserveAspectRatio="xMidYMid meet" version="1.0"><defs><filter x="0%" y="0%" width="100%" height="100%" id="c5d41717d3"><feColorMatrix values="0 0 0 0 1 0 0 0 0 1 0 0 0 0 1 0 0 0 1 0" color-interpolation-filters="sRGB"/></filter><clipPath id="d36deec221"><path d="M 470.121094 184 L 500 184 L 500 223 L 470.121094 223 Z M 470.121094 184 " clip-rule="nonzero"/></clipPath><clipPath id="19eb3a89a0"><path d="M 552 239 L 572 239 L 572 268.417969 L 552 268.417969 Z M 552 239 " clip-rule="nonzero"/></clipPath><mask id="bdc687b768"><g filter="url(#c5d41717d3)"><rect x="-81" width="972" fill="#000000" y="-143.999994" height="1727.999922" fill-opacity="0.1"/></g></mask><clipPath id="be25f5c229"><path d="M 0 53 L 696 53 L 696 1344 L 0 1344 Z M 0 53 " clip-rule="nonzero"/></clipPath><clipPath id="cd2ad81224"><path d="M -1007.136719 567.988281 L 189.28125 1.507812 L 832.785156 1360.613281 L -363.632812 1927.089844 Z M -1007.136719 567.988281 " clip-rule="nonzero"/></clipPath><clipPath id="ffd65eaa86"><path d="M 189.027344 1.628906 L -1007.390625 568.109375 L -363.886719 1927.210938 L 832.53125 1360.734375 Z M 189.027344 1.628906 " clip-rule="nonzero"/></clipPath><clipPath id="7fae92e4d9"><rect x="0" width="810" y="0" height="1344"/></clipPath><clipPath id="4a23dac315"><path d="M 0 533 L 171 533 L 171 1007 L 0 1007 Z M 0 533 " clip-rule="nonzero"/></clipPath><clipPath id="eb36f58b3e"><path d="M -129.851562 582.375 L 158.003906 530.460938 L 234.683594 955.601562 L -53.171875 1007.515625 Z M -129.851562 582.375 " clip-rule="nonzero"/></clipPath><clipPath id="21cba82c5b"><path d="M 234.980469 955.34375 L -52.875 1007.261719 L -129.550781 582.121094 L 158.304688 530.203125 Z M 234.980469 955.34375 " clip-rule="nonzero"/></clipPath><clipPath id="26760c77a6"><path d="M 635 216 L 810 216 L 810 690 L 635 690 Z M 635 216 " clip-rule="nonzero"/></clipPath><clipPath id="9eef51b1ab"><path d="M 583.265625 258.195312 L 927.972656 216.226562 L 981.816406 658.460938 L 637.113281 700.429688 Z M 583.265625 258.195312 " clip-rule="nonzero"/></clipPath><clipPath id="c35f4313a5"><path d="M 981.609375 658.613281 L 636.90625 700.582031 L 583.0625 258.351562 L 927.765625 216.378906 Z M 981.609375 658.613281 " clip-rule="nonzero"/></clipPath><clipPath id="ac15b156ba"><path d="M 634 644 L 655 644 L 655 666 L 634 666 Z M 634 644 " clip-rule="nonzero"/></clipPath><clipPath id="048d55d9c6"><path d="M 583.265625 258.195312 L 927.972656 216.226562 L 981.816406 658.460938 L 637.113281 700.429688 Z M 583.265625 258.195312 " clip-rule="nonzero"/></clipPath><clipPath id="40d528ae0a"><path d="M 981.609375 658.613281 L 636.90625 700.582031 L 583.0625 258.351562 L 927.765625 216.378906 Z M 981.609375 658.613281 " clip-rule="nonzero"/></clipPath><clipPath id="0f3821d89c"><path d="M 658 671 L 679 671 L 679 693 L 658 693 Z M 658 671 " clip-rule="nonzero"/></clipPath><clipPath id="3907d7b1b9"><path d="M 583.265625 258.195312 L 927.972656 216.226562 L 981.816406 658.460938 L 637.113281 700.429688 Z M 583.265625 258.195312 " clip-rule="nonzero"/></clipPath><clipPath id="793da607b9"><path d="M 981.609375 658.613281 L 636.90625 700.582031 L 583.0625 258.351562 L 927.765625 216.378906 Z M 981.609375 658.613281 " clip-rule="nonzero"/></clipPath><clipPath id="8fd6992eed"><path d="M 635 672 L 652 672 L 652 689 L 635 689 Z M 635 672 " clip-rule="nonzero"/></clipPath><clipPath id="49f3981af7"><path d="M 583.265625 258.195312 L 927.972656 216.226562 L 981.816406 658.460938 L 637.113281 700.429688 Z M 583.265625 258.195312 " clip-rule="nonzero"/></clipPath><clipPath id="7c3a4bd1d1"><path d="M 981.609375 658.613281 L 636.90625 700.582031 L 583.0625 258.351562 L 927.765625 216.378906 Z M 981.609375 658.613281 " clip-rule="nonzero"/></clipPath><clipPath id="f96112e238"><path d="M 559 0 L 810 0 L 810 332 L 559 332 Z M 559 0 " clip-rule="nonzero"/></clipPath><clipPath id="1366363fcb"><path d="M 548.554688 -266.433594 L 1064.136719 -310.957031 L 1116.984375 301.015625 L 601.402344 345.539062 Z M 548.554688 -266.433594 " clip-rule="nonzero"/></clipPath><clipPath id="13f231724c"><path d="M 548.554688 -266.433594 L 1064.136719 -310.957031 L 1116.984375 301.015625 L 601.402344 345.539062 Z M 548.554688 -266.433594 " clip-rule="nonzero"/></clipPath></defs><rect x="-81" width="972" fill="#ffffff" y="-143.999994" height="1727.999922" fill-opacity="1"/><rect x="-81" width="972" fill="#fdf1e3" y="-143.999994" height="1727.999922" fill-opacity="1"/><path fill="#989d7f" d="M 879.011719 -52.507812 C 822.074219 -26.664062 755.242188 -36.761719 694.109375 -38.152344 C 632.933594 -39.550781 546.328125 -34.683594 529 40.046875 C 522.375 68.617188 529.980469 100.671875 548.761719 123.394531 C 568.550781 147.347656 600.507812 162.835938 608.6875 193.011719 C 615.164062 216.878906 603.84375 241.671875 589.386719 260.851562 C 566.1875 291.628906 534.632812 314.605469 510.582031 344.664062 C 486.523438 374.71875 470.289062 416.851562 485.0625 453.683594 C 499.929688 490.746094 540.007812 509.164062 576.984375 520.828125 C 655.234375 545.503906 743.421875 555.625 814.074219 515.902344 C 855.90625 492.386719 889.054688 452.722656 934.597656 437.882812 C 993.492188 418.691406 1058.144531 445.410156 1120.011719 440.449219 C 1193.714844 434.523438 1260.273438 379.019531 1281.277344 305.9375 C 1302.289062 232.859375 1276.472656 146.652344 1218.730469 97.054688 C 1191.707031 73.839844 1159 58.472656 1132.863281 34.183594 C 1112.320312 15.101562 1096.332031 -9.234375 1086.808594 -35.929688 C 1076.71875 -64.199219 1072.105469 -97.574219 1048.695312 -115.644531 C 1024.726562 -134.152344 990.554688 -127.945312 965.210938 -112.894531 C 939.863281 -97.839844 919.339844 -75.308594 893.972656 -60.296875 C 889.066406 -57.394531 884.082031 -54.808594 879.011719 -52.507812 " fill-opacity="1" fill-rule="nonzero"/><path fill="#686d4e" d="M 528.054688 156.089844 C 527.277344 158.414062 526.648438 160.878906 526.980469 163.300781 C 527.3125 165.722656 528.8125 168.140625 531.128906 168.902344 C 534.640625 170.054688 538.132812 167.230469 540.679688 164.535156 C 544.332031 160.667969 547.773438 156.617188 551 152.386719 C 554.742188 147.476562 558.269531 142.132812 559.339844 136.054688 C 560.148438 131.488281 559.375 124.433594 555.289062 121.421875 C 550.371094 117.789062 547.460938 123.15625 544.777344 126.863281 C 538.226562 135.9375 531.628906 145.371094 528.054688 156.089844 Z M 528.054688 156.089844 " fill-opacity="1" fill-rule="nonzero"/><path fill="#686d4e" d="M 585.980469 132.878906 C 585.089844 135.082031 584.335938 137.640625 585.402344 139.761719 C 586.359375 141.640625 588.558594 142.636719 590.667969 142.636719 C 592.773438 142.636719 594.78125 141.773438 596.613281 140.738281 C 603.726562 136.722656 608.957031 129.847656 612.007812 122.273438 C 612.894531 120.074219 613.617188 117.738281 613.453125 115.375 C 613.285156 113.007812 612.0625 110.601562 609.925781 109.578125 C 599.316406 104.511719 588.792969 125.949219 585.980469 132.878906 Z M 585.980469 132.878906 " fill-opacity="1" fill-rule="nonzero"/><path fill="#686d4e" d="M 578.902344 202.660156 C 578.746094 203.882812 578.667969 205.214844 579.304688 206.269531 C 580.644531 208.476562 583.976562 208.015625 586.328125 206.976562 C 596.542969 202.507812 603.910156 192.128906 604.773438 181.011719 C 604.921875 179.136719 604.871094 177.148438 603.933594 175.519531 C 599.785156 168.265625 590.339844 179.175781 587.558594 182.625 C 585.222656 185.503906 583.320312 188.644531 581.847656 192.046875 C 580.378906 195.449219 579.398438 198.988281 578.902344 202.660156 Z M 578.902344 202.660156 " fill-opacity="1" fill-rule="nonzero"/><path fill="#686d4e" d="M 522.84375 215.101562 C 521.683594 217.402344 520.609375 219.816406 520.410156 222.386719 C 520.207031 224.957031 521.011719 227.738281 523.039062 229.335938 C 525.644531 231.386719 529.5625 230.929688 532.363281 229.148438 C 535.160156 227.363281 537.089844 224.535156 538.945312 221.804688 L 546.871094 210.03125 C 548.628906 207.429688 550.40625 204.773438 551.320312 201.769531 C 553.652344 194.109375 546.496094 185.167969 539.285156 191.355469 C 532.449219 197.195312 526.847656 207.171875 522.84375 215.101562 Z M 522.84375 215.101562 " fill-opacity="1" fill-rule="nonzero"/><path fill="#686d4e" d="M 526.621094 80.0625 C 525.046875 81.953125 523.429688 83.910156 522.71875 86.261719 C 522.003906 88.609375 522.378906 91.480469 524.289062 93.03125 C 525.800781 94.257812 527.976562 94.414062 529.847656 93.878906 C 531.714844 93.34375 533.359375 92.203125 534.90625 91.019531 C 538.539062 88.253906 541.894531 85.183594 544.972656 81.8125 C 547.238281 79.324219 549.382812 76.605469 550.425781 73.402344 C 552.125 68.175781 548.621094 58.425781 541.695312 61.945312 C 539.246094 63.1875 537.183594 67.304688 535.515625 69.367188 C 532.597656 72.96875 529.582031 76.5 526.621094 80.0625 Z M 526.621094 80.0625 " fill-opacity="1" fill-rule="nonzero"/><path fill="#686d4e" d="M 473.636719 147.492188 C 472.933594 148.683594 472.238281 149.941406 472.105469 151.320312 C 471.972656 152.703125 472.550781 154.246094 473.804688 154.832031 C 474.882812 155.339844 476.15625 155.042969 477.277344 154.644531 C 480.417969 153.53125 483.160156 151.785156 485.5 149.40625 C 490.734375 144.074219 492.839844 136.503906 494.757812 129.277344 C 495.542969 126.308594 495.351562 123.242188 492.0625 124.183594 C 490.195312 124.71875 486.789062 129.8125 485.433594 131.332031 C 480.972656 136.332031 477.039062 141.71875 473.636719 147.492188 Z M 473.636719 147.492188 " fill-opacity="1" fill-rule="nonzero"/><g clip-path="url(#d36deec221)"><path fill="#686d4e" d="M 489.371094 187.589844 C 485.007812 191.441406 481.257812 195.820312 478.125 200.726562 C 474.988281 205.628906 472.589844 210.871094 470.925781 216.449219 C 470.507812 217.867188 470.15625 219.46875 470.863281 220.761719 C 471.992188 222.820312 474.949219 222.804688 477.199219 222.152344 C 483.175781 220.425781 488.246094 216.21875 491.792969 211.109375 C 495.339844 205.996094 497.46875 200.023438 498.855469 193.960938 C 500.710938 185.847656 495.738281 181.988281 489.371094 187.589844 Z M 489.371094 187.589844 " fill-opacity="1" fill-rule="nonzero"/></g><path fill="#686d4e" d="M 641.082031 156.632812 C 640.144531 158.1875 639.28125 159.828125 638.941406 161.613281 C 638.601562 163.402344 638.84375 165.367188 639.957031 166.804688 C 641.816406 169.214844 645.558594 169.402344 648.292969 168.058594 C 651.023438 166.714844 652.980469 164.226562 654.832031 161.808594 L 661.511719 153.140625 C 662.84375 151.410156 664.207031 149.613281 664.707031 147.492188 C 666.339844 140.523438 658.292969 140.332031 653.882812 142.519531 C 648.585938 145.148438 644.027344 151.742188 641.082031 156.632812 Z M 641.082031 156.632812 " fill-opacity="1" fill-rule="nonzero"/><path fill="#686d4e" d="M 585.542969 87.152344 C 584.300781 89.230469 583.269531 91.84375 584.378906 93.996094 C 585.40625 96 588.03125 96.78125 590.222656 96.253906 C 592.414062 95.726562 594.210938 94.171875 595.703125 92.480469 C 598.210938 89.621094 600.03125 86.378906 601.164062 82.746094 C 602.597656 78.128906 600.484375 72.777344 595.445312 75.800781 C 591.683594 78.0625 587.765625 83.4375 585.542969 87.152344 Z M 585.542969 87.152344 " fill-opacity="1" fill-rule="nonzero"/><g clip-path="url(#19eb3a89a0)"><path fill="#686d4e" d="M 552.96875 263.097656 C 552.726562 264.808594 552.835938 266.871094 554.277344 267.816406 C 555.65625 268.722656 557.507812 268.105469 558.957031 267.328125 C 566.601562 263.21875 571.730469 254.808594 571.886719 246.136719 C 571.933594 243.746094 571.152344 238.707031 567.738281 239.019531 C 565.683594 239.210938 563.238281 243.726562 562.113281 245.164062 C 557.914062 250.511719 553.941406 256.199219 552.96875 263.097656 Z M 552.96875 263.097656 " fill-opacity="1" fill-rule="nonzero"/></g><path fill="#686d4e" d="M 618.539062 210.785156 C 617.773438 212.183594 617.015625 213.71875 617.261719 215.292969 C 617.683594 218.011719 620.902344 219.40625 623.644531 219.25 C 627.023438 219.0625 630.210938 217.265625 632.414062 214.703125 C 634.621094 212.140625 635.898438 208.855469 636.382812 205.507812 C 637.046875 200.964844 634.605469 194.917969 629.042969 196.753906 C 624.308594 198.316406 620.726562 206.785156 618.539062 210.785156 Z M 618.539062 210.785156 " fill-opacity="1" fill-rule="nonzero"/><path fill="#686d4e" d="M 636.648438 83.621094 C 635.347656 85.085938 633.953125 86.898438 634.433594 88.800781 C 634.914062 90.699219 637.109375 91.671875 639.078125 91.835938 C 639.496094 91.871094 639.917969 91.886719 640.339844 91.875 C 640.757812 91.867188 641.179688 91.835938 641.597656 91.78125 C 642.015625 91.730469 642.425781 91.652344 642.835938 91.554688 C 643.246094 91.457031 643.648438 91.335938 644.046875 91.195312 C 644.441406 91.054688 644.828125 90.894531 645.207031 90.710938 C 645.589844 90.527344 645.957031 90.324219 646.3125 90.101562 C 646.671875 89.878906 647.015625 89.640625 647.347656 89.378906 C 647.679688 89.121094 647.996094 88.84375 648.296875 88.550781 C 648.597656 88.257812 648.882812 87.949219 649.152344 87.625 C 649.421875 87.300781 649.671875 86.964844 649.90625 86.613281 C 650.136719 86.261719 650.351562 85.902344 650.546875 85.527344 C 650.738281 85.152344 650.914062 84.769531 651.066406 84.378906 C 651.21875 83.984375 651.347656 83.585938 651.460938 83.179688 C 651.570312 82.773438 651.65625 82.363281 651.722656 81.949219 C 651.789062 81.53125 651.832031 81.113281 651.851562 80.695312 C 651.875 80.273438 651.871094 79.851562 651.847656 79.433594 C 651.753906 77.761719 651.25 76.035156 650.039062 74.878906 C 645.320312 70.386719 639.175781 80.765625 636.648438 83.621094 Z M 636.648438 83.621094 " fill-opacity="1" fill-rule="nonzero"/><g mask="url(#bdc687b768)"><g transform="matrix(1, 0, 0, 1, 0, 96)"><g clip-path="url(#7fae92e4d9)"><g clip-path="url(#be25f5c229)"><g clip-path="url(#cd2ad81224)"><g clip-path="url(#ffd65eaa86)"><path fill="#a29b73" d="M 639.632812 1181.03125 C 675.277344 1208.710938 695.53125 1254.011719 695.96875 1299.136719 C 696.40625 1344.265625 678.007812 1388.65625 648.492188 1422.796875 C 618.976562 1456.933594 578.898438 1481.125 535.96875 1495.039062 C 493.039062 1508.953125 447.300781 1512.929688 402.234375 1510.546875 C 312.101562 1505.785156 225.4375 1476.289062 138 1453.894531 C 50.566406 1431.5 -42.195312 1416.15625 -129.324219 1439.714844 C -180.632812 1453.589844 -227.351562 1480.28125 -275.59375 1502.589844 C -323.832031 1524.898438 -376.054688 1543.277344 -429.011719 1538.734375 C -462.941406 1535.828125 -495.875 1523.382812 -523.839844 1503.949219 C -551.808594 1484.519531 -574.820312 1458.210938 -591.265625 1428.390625 C -624.152344 1368.75 -629.964844 1296.304688 -614.503906 1229.972656 C -604.761719 1188.167969 -587.054688 1148.453125 -578.65625 1106.359375 C -574.453125 1085.3125 -572.625 1063.621094 -575.425781 1042.34375 C -578.226562 1021.066406 -585.832031 1000.164062 -599.105469 983.296875 C -613.34375 965.195312 -633.503906 952.4375 -654.890625 943.886719 C -676.277344 935.332031 -699.003906 930.714844 -721.652344 926.546875 C -744.304688 922.378906 -767.117188 918.59375 -789.058594 911.589844 C -811 904.585938 -832.238281 894.160156 -848.914062 878.269531 C -864.230469 863.675781 -875.246094 844.78125 -881.265625 824.5 C -887.28125 804.214844 -888.378906 782.589844 -885.332031 761.65625 C -879.234375 719.785156 -856.878906 681.539062 -828.140625 650.488281 C -766.714844 584.121094 -679.421875 549.578125 -597.640625 510.980469 C -400.726562 418.050781 -221.191406 291.222656 -56.148438 149.195312 C -16.863281 115.390625 23.058594 79.863281 72.105469 63.125 C 96.628906 54.753906 123.191406 51.421875 148.675781 56.117188 C 174.160156 60.8125 198.453125 73.925781 214.425781 94.328125 C 224.144531 106.746094 230.617188 121.558594 233.988281 136.957031 C 237.359375 152.359375 237.683594 168.347656 235.8125 184 C 232.078125 215.3125 219.769531 244.925781 206.210938 273.394531 C 192.652344 301.863281 177.65625 329.820312 167.953125 359.824219 C 158.253906 389.824219 154.082031 422.558594 162.679688 452.894531 C 171.507812 484.039062 193.269531 510.394531 219.347656 529.574219 C 245.421875 548.75 275.714844 561.367188 306.320312 571.898438 C 336.929688 582.429688 368.214844 591.074219 398.199219 603.269531 C 428.183594 615.464844 457.171875 631.507812 479.75 654.699219 C 511.203125 687.011719 528.1875 731.441406 533.457031 776.226562 C 538.722656 821.011719 533.042969 866.40625 524.09375 910.601562 C 516.9375 945.960938 507.652344 981.210938 506.929688 1017.277344 C 506.566406 1035.3125 508.390625 1053.484375 513.605469 1070.75 C 518.820312 1088.019531 527.511719 1104.375 539.882812 1117.503906 C 553.449219 1131.90625 570.910156 1141.972656 588.445312 1151.144531 C 605.980469 1160.316406 624.003906 1168.894531 639.632812 1181.03125 Z M 639.632812 1181.03125 " fill-opacity="1" fill-rule="nonzero"/></g></g></g></g></g></g><path fill="#e2dbad" d="M 214.679688 929.640625 C 194.609375 899.203125 164.609375 875.554688 130.574219 862.484375 C 96.539062 849.414062 58.644531 846.871094 23.011719 854.589844 C -12.621094 862.304688 -45.90625 880.160156 -72.535156 905.0625 C -99.167969 929.964844 -119.136719 961.800781 -130.65625 996.390625 C -148.863281 1051.0625 -145.875 1110.296875 -140.785156 1167.695312 C -135.695312 1225.09375 -128.738281 1283.351562 -139.554688 1339.949219 C -145.265625 1369.816406 -155.835938 1398.578125 -161.851562 1428.386719 C -167.867188 1458.199219 -169.027344 1490.261719 -156.46875 1517.957031 C -149.101562 1534.199219 -137.234375 1548.257812 -122.964844 1558.960938 C -108.699219 1569.664062 -92.078125 1577.0625 -74.769531 1581.378906 C -40.15625 1590.003906 -3.496094 1586.320312 31.089844 1577.585938 C 65.675781 1568.851562 98.792969 1555.210938 132.542969 1543.65625 C 166.289062 1532.097656 201.257812 1522.527344 236.929688 1522.40625 C 282.773438 1522.253906 327.46875 1537.6875 373.292969 1538.972656 C 396.207031 1539.613281 419.609375 1536.558594 440.300781 1526.699219 C 460.992188 1516.835938 478.765625 1499.609375 486.144531 1477.90625 C 490.15625 1466.097656 491.011719 1453.304688 489.199219 1440.96875 C 487.382812 1428.628906 482.941406 1416.742188 476.734375 1405.925781 C 464.320312 1384.289062 445.167969 1367.234375 424.53125 1353.226562 C 403.894531 1339.222656 381.566406 1327.921875 360.140625 1315.148438 C 338.71875 1302.375 317.914062 1287.871094 301.902344 1268.746094 C 280.496094 1243.171875 268.847656 1210.65625 262.8125 1177.855469 C 256.78125 1145.054688 255.976562 1111.558594 253.839844 1078.277344 C 250.523438 1026.542969 243.21875 972.914062 214.679688 929.640625 Z M 214.679688 929.640625 " fill-opacity="1" fill-rule="nonzero"/><path fill="#a29b73" d="M 471.789062 1256.414062 C 435.660156 1210.433594 369.011719 1229.847656 319.925781 1233.15625 C 291.90625 1235.042969 259.871094 1233.355469 238.417969 1212.828125 C 215.96875 1191.351562 214.074219 1157.996094 205.226562 1129.960938 C 188.042969 1075.523438 132.964844 1040.191406 76.164062 1049.953125 C 50.300781 1054.398438 27.46875 1068.550781 10.472656 1088.335938 C 0.839844 1099.550781 -6.945312 1112.402344 -15.417969 1124.492188 C -24.382812 1137.285156 -32.65625 1150.558594 -40.210938 1164.230469 C -71.078125 1220.074219 -89.925781 1282.40625 -95.648438 1345.933594 C -98.515625 1377.75 -98.035156 1409.882812 -94.03125 1441.582031 C -90.050781 1473.121094 -83.960938 1507.210938 -62.921875 1532.289062 C -45.007812 1553.640625 -17.378906 1565.144531 9.976562 1556.734375 C 37.703125 1548.207031 58.15625 1525.636719 82.0625 1510.375 C 139.082031 1473.96875 210.097656 1489.050781 272.933594 1496.1875 C 329.1875 1502.574219 394.941406 1503.214844 438.929688 1461.679688 C 459.945312 1441.835938 472.554688 1414.878906 479.65625 1387.210938 C 487.09375 1358.242188 491.132812 1325.652344 487.09375 1295.878906 C 485.191406 1281.886719 480.734375 1268.496094 472.292969 1257.0625 C 469.855469 1253.757812 464.253906 1256.972656 466.726562 1260.316406 C 485.101562 1285.203125 483.242188 1318.617188 480.101562 1347.839844 C 476.964844 1377.023438 469.914062 1406.726562 454.519531 1432.027344 C 439.289062 1457.058594 415.847656 1474.964844 388.046875 1483.984375 C 360.695312 1492.859375 331.445312 1493.9375 302.9375 1492.347656 C 243.078125 1489.007812 182.316406 1471.65625 122.652344 1486.273438 C 108.105469 1489.835938 94.027344 1495.453125 81.238281 1503.277344 C 69.574219 1510.410156 58.976562 1519.113281 48.109375 1527.363281 C 25.921875 1544.207031 -0.0898438 1560.417969 -28.722656 1549.582031 C -60.117188 1537.703125 -75.109375 1504.9375 -82 1474.320312 C -88.929688 1443.515625 -91.441406 1411.488281 -90.984375 1379.957031 C -90.082031 1318.070312 -76.339844 1256.265625 -50.851562 1199.851562 C -38.273438 1172.007812 -22.863281 1145.523438 -4.890625 1120.816406 C 3.484375 1109.304688 10.507812 1097.183594 20.507812 1086.902344 C 29.492188 1077.664062 39.910156 1069.917969 51.566406 1064.378906 C 103.472656 1039.710938 168.710938 1064.59375 193.070312 1116.136719 C 205.226562 1141.863281 206.003906 1171.445312 218.90625 1196.914062 C 230.789062 1220.382812 252.890625 1233.992188 278.417969 1238.203125 C 330.972656 1246.878906 385.859375 1220.328125 437.203125 1239.304688 C 449.128906 1243.710938 459.367188 1250.964844 467.226562 1260.96875 C 469.792969 1264.234375 474.328125 1259.640625 471.789062 1256.414062 Z M 471.789062 1256.414062 " fill-opacity="1" fill-rule="nonzero"/><g clip-path="url(#4a23dac315)"><g clip-path="url(#eb36f58b3e)"><g clip-path="url(#21cba82c5b)"><path fill="#a29b73" d="M 10.414062 957.625 C 10.933594 957.441406 11.378906 957.269531 11.644531 957.09375 L 20.558594 950.667969 C 24.117188 948.25 27.789062 946.039062 31.511719 943.976562 C 37.167969 940.832031 42.996094 938.003906 48.863281 935.179688 C 51.8125 933.757812 54.820312 932.417969 57.828125 931.101562 C 62.378906 929.109375 66.96875 927.210938 71.535156 925.28125 C 85.914062 919.207031 101.109375 911.121094 112.375 899.75 C 120.085938 891.96875 125.964844 882.652344 128.589844 871.4375 C 129.398438 867.964844 130.726562 862.546875 130.960938 857.546875 C 131.144531 853.558594 130.589844 849.832031 128.898438 847.226562 C 127.9375 845.75 126.207031 845.070312 124.007812 846.679688 C 121.484375 848.523438 116.566406 856.445312 115.992188 857.242188 C 113.738281 860.394531 111.359375 863.476562 108.773438 866.367188 C 106.226562 869.222656 103.476562 871.882812 100.480469 874.277344 C 93.746094 879.652344 85.789062 882.207031 77.839844 884.851562 C 72.210938 886.71875 66.574219 888.609375 61.277344 891.28125 C 59.34375 892.257812 57.453125 893.335938 55.625 894.554688 C 56.929688 892.566406 58.207031 890.558594 59.480469 888.550781 C 61.5625 885.171875 63.585938 881.769531 65.539062 878.3125 C 75.605469 865.53125 86.09375 853.027344 95.636719 839.851562 C 99.988281 833.851562 104.09375 827.675781 107.796875 821.207031 C 114.863281 808.867188 119.898438 795.890625 123.949219 782.574219 C 129.925781 762.933594 133.789062 742.589844 139.523438 722.710938 C 145.09375 703.21875 153.703125 684.675781 160.445312 665.566406 C 163.386719 657.214844 165.976562 648.761719 167.828125 640.078125 C 170.691406 626.628906 171.171875 612.449219 169.613281 598.457031 C 168.0625 584.539062 164.511719 570.832031 159.292969 558.230469 C 157.847656 554.730469 156.214844 551.316406 154.355469 548.019531 C 152.488281 544.710938 150.398438 541.519531 148.046875 538.527344 C 147.570312 537.917969 145.738281 535.3125 144.265625 534.316406 C 142.964844 533.441406 141.691406 533.414062 140.738281 533.90625 C 140.527344 534.023438 140.320312 534.164062 140.121094 534.339844 C 139.949219 534.320312 139.773438 534.339844 139.597656 534.382812 C 138.761719 534.597656 138.265625 535.460938 138.484375 536.296875 C 138.519531 536.539062 138.550781 536.789062 138.582031 537.039062 C 138.445312 537.515625 138.339844 538.039062 138.273438 538.605469 C 137.769531 542.855469 138.863281 550.207031 138.902344 551.796875 C 139.109375 560.144531 139.015625 568.589844 138.066406 576.902344 C 137.128906 585.097656 135.359375 593.15625 132.179688 600.878906 C 127.101562 613.261719 118.46875 623.554688 112.769531 635.335938 C 110.222656 640.601562 108.246094 646.148438 107.328125 652.253906 C 106.183594 659.917969 106.132812 667.527344 106.675781 675.109375 C 107.90625 692.328125 112.203125 709.382812 112.835938 726.6875 C 113.003906 730.828125 112.730469 734.742188 112.207031 738.574219 C 110.914062 748.042969 108.128906 756.929688 106.527344 766.804688 C 104.898438 776.890625 104.703125 787.035156 103.441406 797.09375 C 102.917969 801.285156 102.207031 805.445312 101.109375 809.597656 C 99.40625 816.011719 96.886719 822.238281 93.855469 828.246094 C 92.039062 831.84375 90.011719 835.355469 87.929688 838.820312 C 87.382812 839.71875 86.832031 840.617188 86.277344 841.515625 C 83.953125 844.625 81.578125 847.695312 79.175781 850.746094 C 82.484375 842.933594 85.410156 834.949219 87.921875 826.804688 C 96.128906 800.203125 102.238281 769.34375 100.503906 739.757812 C 99.324219 719.679688 94.53125 700.203125 84.527344 683.019531 C 81.035156 677.015625 77.007812 671.828125 72.617188 667.03125 C 66.085938 659.898438 58.746094 653.648438 51.207031 646.863281 C 48.042969 644.023438 45.058594 641.019531 42.164062 637.945312 C 37.757812 633.253906 33.550781 628.394531 29.191406 623.628906 C 27.582031 621.871094 25.019531 618.738281 22.277344 617.003906 C 20.695312 616.015625 19.03125 615.453125 17.425781 615.574219 C 15.742188 615.671875 14.566406 616.359375 13.847656 617.496094 C 13.734375 617.527344 13.621094 617.574219 13.511719 617.644531 C 12.859375 618.046875 12.660156 618.90625 13.070312 619.566406 L 13.089844 619.601562 C 12.953125 620.414062 12.9375 621.34375 13.03125 622.34375 C 13.5 627.324219 16.949219 634.660156 17.585938 636.105469 C 19.535156 640.507812 21.699219 644.714844 23.941406 648.820312 C 27.316406 654.988281 30.8125 660.925781 33.40625 667.234375 C 36.125 673.855469 37.894531 680.855469 37.609375 688.890625 C 37.40625 694.726562 36.792969 700.375 36.851562 706.046875 C 36.894531 709.980469 37.25 713.921875 38.234375 717.933594 C 41.753906 732.136719 48.714844 745.089844 53.15625 758.976562 C 54.222656 762.3125 55.152344 765.699219 55.828125 769.1875 C 58.183594 781.28125 58.886719 793.148438 58.574219 804.941406 C 58.097656 822.90625 55.269531 840.707031 52.230469 858.953125 C 50.769531 867.757812 50.035156 876.742188 48.503906 885.546875 C 48.046875 888.21875 47.441406 890.863281 46.78125 893.496094 C 46.640625 893.714844 46.5 893.933594 46.359375 894.164062 L 46.351562 894.179688 C 47.566406 886.914062 48.0625 879.390625 47.890625 871.871094 C 47.46875 854.039062 43.242188 836.214844 35.734375 821.828125 C 32.90625 816.28125 21.777344 803.925781 12.515625 796.371094 C 8.332031 792.953125 4.449219 790.574219 1.859375 789.921875 C -0.390625 789.359375 -2.027344 789.9375 -3.085938 791.210938 C -3.234375 791.382812 -3.746094 792.347656 -3.394531 794.011719 C -3.125 795.355469 -2.4375 798.15625 -1.394531 801.664062 C 1.894531 812.691406 8.316406 831.074219 8.960938 834.140625 C 9.847656 838.359375 10.28125 842.546875 10.546875 846.722656 C 11.210938 856.921875 10.707031 867.046875 11.59375 877.386719 C 12.988281 892.554688 17.792969 909.621094 17.453125 925.65625 C 17.308594 933.078125 16.007812 940.230469 12.726562 946.953125 C 12.546875 947.320312 12.355469 947.691406 12.164062 948.058594 C 1.644531 959.796875 -10.257812 970.433594 -22.050781 980.484375 C -25.199219 983.230469 -28.382812 985.929688 -31.617188 988.574219 C -34.851562 991.21875 -38.121094 993.792969 -41.457031 996.300781 L -48.609375 1001.855469 C -49.496094 1002.59375 -51.945312 1004 -52.566406 1004.5 C -52.757812 1004.648438 -52.894531 1004.738281 -52.9375 1004.796875 C -53.476562 1005.589844 -53.316406 1006.117188 -53.03125 1006.335938 C -52.972656 1006.390625 -52.4375 1007.054688 -51.539062 1006.542969 L -51.445312 1006.5 C -51.492188 1006.367188 -51.402344 1006.234375 -51.230469 1006.113281 L -51.234375 1006.371094 C -51.289062 1006.421875 -51.375 1006.460938 -51.445312 1006.5 L -51.441406 1006.511719 C -51.289062 1006.921875 -51.234375 1006.734375 -51.234375 1006.371094 C -51.074219 1006.253906 -50.960938 1006.105469 -50.902344 1005.925781 C -49.832031 1005.4375 -47.542969 1005.050781 -46.757812 1004.625 C -45.144531 1003.714844 -43.523438 1002.84375 -41.964844 1001.851562 C -40.921875 1001.203125 -39.933594 1000.46875 -38.925781 999.757812 C -35.476562 997.320312 -32.078125 994.800781 -28.734375 992.214844 C -25.386719 989.625 -22.074219 986.980469 -18.824219 984.296875 C -8.886719 975.90625 1.179688 967.136719 10.414062 957.625 Z M 115.8125 785.511719 C 116.347656 783.867188 116.863281 782.214844 117.367188 780.566406 C 123.34375 760.964844 127.382812 740.691406 133.207031 720.875 C 138.996094 701.304688 147.820312 682.707031 154.789062 663.53125 C 157.730469 655.453125 160.339844 647.265625 162.222656 638.847656 C 165.101562 626.015625 165.695312 612.433594 164.339844 599.023438 C 162.980469 585.574219 159.671875 572.296875 154.75 560.082031 C 153.40625 556.757812 151.890625 553.5 150.15625 550.359375 C 148.433594 547.246094 146.503906 544.242188 144.324219 541.417969 C 144.179688 541.234375 143.695312 540.640625 143.179688 540.023438 C 146.976562 553.046875 147.789062 567.597656 147.984375 581.980469 C 148.199219 598.082031 146.714844 614.195312 143.902344 628.753906 C 142.929688 633.789062 141.640625 638.75 140.191406 643.660156 C 136.867188 654.964844 132.714844 666.058594 129.816406 677.464844 C 128.25 683.621094 127.152344 689.835938 126.367188 696.085938 C 125.175781 705.523438 124.691406 715.039062 124.371094 724.59375 C 124.03125 735.746094 123.085938 746.738281 121.484375 757.628906 C 120.109375 766.984375 118.246094 776.261719 115.8125 785.511719 Z M 106.726562 804.605469 L 111.054688 789.058594 C 114.121094 778.472656 116.429688 767.851562 118.046875 757.113281 C 119.660156 746.363281 120.582031 735.503906 120.933594 724.492188 C 121.214844 714.832031 121.667969 705.203125 122.820312 695.640625 C 123.59375 689.242188 124.683594 682.886719 126.246094 676.578125 C 129.085938 665.101562 133.183594 653.941406 136.449219 642.570312 C 137.835938 637.773438 139.066406 632.925781 139.984375 628.007812 C 142.660156 613.6875 143.964844 597.851562 143.714844 582.054688 C 143.671875 579.417969 143.5625 576.785156 143.394531 574.175781 C 143.167969 577 142.855469 579.824219 142.429688 582.621094 C 141.386719 589.519531 139.671875 596.296875 137.019531 602.855469 C 131.933594 615.339844 123.289062 625.761719 117.578125 637.652344 C 115.277344 642.445312 113.46875 647.488281 112.652344 653.046875 C 111.574219 660.3125 111.566406 667.527344 112.078125 674.714844 C 113.308594 692 117.527344 709.132812 118.117188 726.507812 C 118.25 730.953125 117.917969 735.1875 117.3125 739.300781 C 115.910156 748.804688 113.027344 757.710938 111.308594 767.605469 C 109.566406 777.605469 109.269531 787.695312 107.886719 797.683594 C 107.566406 799.996094 107.191406 802.304688 106.726562 804.605469 Z M 62.304688 871.949219 L 62.402344 871.816406 C 65.179688 866.667969 67.796875 861.414062 70.253906 856.101562 C 74.90625 846.027344 78.972656 835.683594 82.285156 825.050781 C 90.394531 799.097656 96.40625 768.976562 94.917969 740.070312 C 93.921875 720.808594 89.628906 702.078125 80.214844 685.496094 C 76.96875 679.769531 73.199219 674.808594 69.085938 670.214844 C 62.738281 663.117188 55.578125 656.898438 48.234375 650.132812 C 45.011719 647.171875 41.980469 644.046875 39.039062 640.855469 C 34.671875 636.101562 30.492188 631.1875 26.164062 626.378906 C 24.925781 624.992188 23.085938 622.65625 21.023438 621.03125 C 19.941406 620.183594 18.835938 619.46875 17.699219 619.542969 C 17.273438 619.570312 17.144531 619.902344 17.085938 620.285156 C 17.382812 620.695312 17.667969 621.121094 17.945312 621.5625 C 20.9375 626.289062 23.15625 631.417969 26.007812 636.222656 C 27.476562 638.699219 29.066406 641.105469 30.894531 643.40625 C 36.433594 650.457031 43.371094 656.882812 48.96875 664.117188 C 51.480469 667.363281 53.726562 670.773438 55.488281 674.460938 C 57.328125 678.300781 58.429688 682.394531 59.152344 686.605469 C 60.726562 695.789062 60.414062 705.558594 62.582031 714.453125 C 65.128906 724.894531 68.605469 735.152344 71.121094 745.621094 C 72.21875 750.191406 73.132812 754.804688 73.722656 759.492188 C 75.496094 773.703125 75.546875 788.1875 74.4375 802.609375 C 73.332031 816.953125 71.074219 831.222656 68.320312 845.128906 C 66.625 853.332031 64.839844 863.003906 62.101562 872.207031 Z M 51.832031 885.988281 C 51.972656 885.78125 52.113281 885.589844 52.253906 885.382812 C 53.957031 881.703125 55.5 877.765625 56.75 873.660156 C 59.761719 863.738281 61.550781 853.058594 63.246094 844.125 C 65.964844 830.414062 68.167969 816.335938 69.289062 802.195312 C 70.40625 788.121094 70.453125 773.980469 68.777344 760.101562 C 68.234375 755.585938 67.371094 751.15625 66.339844 746.753906 C 63.878906 736.277344 60.464844 726.019531 57.976562 715.554688 C 55.835938 706.539062 56.183594 696.660156 54.648438 687.363281 C 54.019531 683.5625 53.066406 679.867188 51.429688 676.390625 C 49.820312 672.984375 47.757812 669.824219 45.457031 666.8125 C 40.753906 660.640625 35.089844 655.042969 30.132812 649.144531 C 33.164062 654.433594 36.042969 659.699219 38.339844 665.199219 C 41.375 672.46875 43.320312 680.195312 43.046875 689.070312 C 42.863281 694.824219 42.277344 700.390625 42.351562 705.980469 C 42.394531 709.503906 42.707031 713.027344 43.59375 716.617188 C 46.617188 728.902344 52.324219 740.214844 56.558594 752.074219 C 58.429688 757.316406 60.003906 762.660156 61.007812 768.214844 C 63.261719 780.726562 63.828125 792.953125 63.316406 805.105469 C 62.546875 823.265625 59.378906 841.214844 55.996094 859.613281 C 54.386719 868.34375 53.507812 877.261719 51.832031 885.988281 Z M 24.324219 932.972656 C 27.316406 928.785156 30.078125 924.449219 32.546875 919.933594 C 40.140625 906.171875 43.5625 889.078125 43.347656 871.957031 C 43.125 854.785156 39.246094 837.578125 32.175781 823.652344 C 30.160156 819.765625 23.738281 812.371094 16.957031 805.914062 C 11.914062 801.105469 6.691406 796.777344 2.902344 794.910156 C 3.109375 795.144531 3.308594 795.378906 3.503906 795.613281 C 5.949219 798.730469 8.003906 802.210938 10.148438 805.597656 C 12.902344 809.933594 15.429688 814.371094 17.433594 818.984375 C 18.625 821.730469 19.511719 824.507812 20.210938 827.304688 C 21.808594 833.664062 22.460938 840.144531 23.914062 846.695312 C 26.699219 859.371094 29.109375 870.648438 29.917969 882.429688 C 30.4375 890.15625 30.257812 898.097656 29.121094 906.78125 C 28.492188 911.441406 27.757812 916.082031 26.90625 920.71875 C 26.152344 924.820312 25.289062 928.90625 24.324219 932.972656 Z M 21.730469 925.671875 C 22.097656 923.773438 22.453125 921.882812 22.765625 919.984375 C 23.550781 915.410156 24.21875 910.820312 24.78125 906.222656 C 25.820312 897.84375 25.921875 890.183594 25.402344 882.742188 C 24.613281 871.160156 22.359375 860.078125 19.683594 847.613281 C 18.289062 841.089844 17.695312 834.652344 16.148438 828.296875 C 15.53125 825.714844 14.746094 823.152344 13.667969 820.601562 C 12.542969 817.933594 11.222656 815.335938 9.792969 812.773438 C 8.636719 810.714844 7.351562 808.71875 6.027344 806.753906 C 9.757812 817.429688 14.117188 830.375 14.6875 832.902344 C 15.679688 837.410156 16.253906 841.878906 16.519531 846.339844 C 17.15625 856.519531 16.386719 866.617188 17.132812 876.957031 C 18.136719 892.246094 22.636719 909.546875 21.730469 925.671875 Z M 37.277344 924.515625 C 39.898438 921.621094 42.613281 918.8125 45.523438 916.238281 C 49.558594 912.679688 53.945312 909.566406 58.875 907.234375 C 67.101562 903.355469 76.21875 901.839844 84.816406 899.039062 C 88.320312 897.894531 91.738281 896.527344 94.953125 894.660156 C 101.0625 891.085938 105.960938 886.390625 110.0625 881.039062 C 114.457031 875.285156 117.875 868.757812 121.011719 862.097656 C 122.097656 859.800781 123.015625 857.417969 124.210938 855.195312 C 124.519531 854.609375 124.898438 854.105469 125.242188 853.554688 C 125.339844 853.316406 125.480469 853.109375 125.652344 852.953125 C 125.644531 852.902344 125.632812 852.839844 125.625 852.789062 C 123.71875 855.398438 120.550781 859.757812 120.199219 860.246094 C 117.851562 863.554688 115.359375 866.777344 112.675781 869.824219 C 109.953125 872.917969 107.035156 875.824219 103.835938 878.4375 C 100.800781 880.917969 97.535156 882.886719 94.125 884.542969 C 87.535156 887.753906 80.417969 889.824219 73.4375 892.203125 C 66.90625 894.4375 60.476562 896.9375 54.855469 901.402344 C 46.984375 907.628906 42.152344 916.113281 37.277344 924.515625 Z M 29.339844 939.640625 C 35.019531 936.492188 40.851562 933.621094 46.742188 930.78125 C 49.753906 929.324219 52.800781 927.949219 55.859375 926.613281 C 60.425781 924.605469 65.027344 922.679688 69.609375 920.734375 C 83.398438 914.882812 98.007812 907.148438 108.796875 896.210938 C 115.839844 889.066406 121.246094 880.554688 123.625 870.269531 C 124.027344 868.546875 124.570312 866.296875 125.027344 863.871094 L 125.003906 863.929688 C 121.886719 870.957031 118.175781 877.71875 113.597656 883.738281 C 109.160156 889.546875 103.851562 894.652344 97.230469 898.539062 C 93.742188 900.597656 90.035156 902.105469 86.222656 903.347656 C 77.8125 906.113281 68.871094 907.558594 60.820312 911.367188 C 56.28125 913.511719 52.265625 916.402344 48.550781 919.660156 C 42.8125 924.703125 37.792969 930.65625 32.820312 936.371094 Z M 20.082031 937.085938 C 19.878906 937.894531 19.660156 938.695312 19.417969 939.484375 C 19.605469 939.246094 19.792969 938.992188 19.992188 938.75 C 20.054688 938.238281 20.082031 937.664062 20.082031 937.085938 Z M 20.082031 937.085938 " fill-opacity="1" fill-rule="evenodd"/></g></g></g><g clip-path="url(#26760c77a6)"><g clip-path="url(#9eef51b1ab)"><g clip-path="url(#c35f4313a5)"><path fill="#686d4e" d="M 702.941406 585.644531 C 702.367188 585.835938 701.878906 586.277344 701.652344 586.890625 C 696.40625 600.964844 693.539062 626.835938 696.507812 649 C 698.527344 664.125 703.332031 677.5 711.652344 684.550781 C 713.675781 686.265625 716.386719 688.210938 719.226562 689.117188 C 721.410156 689.8125 723.667969 689.914062 725.816406 689.058594 C 727.941406 688.210938 729.457031 686.632812 730.523438 684.683594 C 731.882812 682.191406 732.476562 679.066406 732.867188 676.535156 C 737.828125 644.367188 719.921875 615 707.140625 587.179688 C 707.082031 587.0625 707.015625 586.945312 706.941406 586.84375 C 717.015625 553.417969 733.835938 511.796875 754.785156 468.324219 C 751.945312 497.078125 750.117188 532.265625 758.695312 558.484375 C 762.789062 570.996094 769.863281 576.351562 776.664062 576.777344 C 780.902344 577.042969 785.152344 575.421875 788.753906 572.210938 C 793.828125 567.683594 797.648438 559.929688 798.113281 550.125 C 799.300781 525.058594 783.25 502.074219 771.539062 481.179688 C 767.546875 474.0625 762.554688 466.183594 761.847656 457.808594 C 761.785156 457.074219 761.347656 456.460938 760.742188 456.140625 L 760.886719 455.851562 C 767.367188 442.789062 774.078125 429.84375 781.015625 417.015625 C 784.410156 410.742188 787.859375 404.496094 791.363281 398.28125 L 791.445312 398.132812 C 791.773438 397.832031 791.988281 397.441406 792.074219 397.019531 L 792.300781 396.621094 L 792.433594 396.386719 C 793.445312 396.207031 794.191406 395.300781 794.148438 394.246094 C 794.140625 394.019531 794.09375 393.800781 794.015625 393.597656 C 834.996094 321.679688 883.230469 254.507812 926.964844 220.660156 C 927.875 219.957031 928.042969 218.644531 927.339844 217.734375 C 926.632812 216.820312 925.320312 216.652344 924.410156 217.359375 C 880.222656 251.550781 831.4375 319.542969 790.050781 392.25 C 782.691406 392.007812 774.726562 388.898438 767.8125 387.289062 C 755.347656 384.386719 734.289062 379.710938 715.414062 379.019531 C 702.4375 378.542969 690.480469 380.011719 682.792969 384.960938 C 677.898438 388.113281 674.808594 393.238281 674.085938 398.988281 C 672.945312 408.132812 677.695312 413.8125 684.546875 417.304688 C 690.855469 420.523438 699.019531 421.800781 705.417969 422.320312 C 732.621094 424.535156 760.550781 414.921875 784.53125 402.050781 C 764.160156 438.632812 745.78125 476.054688 730.902344 510.679688 C 730.808594 510.683594 730.71875 510.691406 730.628906 510.703125 C 721.878906 512.054688 713.332031 514.363281 704.5 515.515625 C 695.371094 516.710938 665.132812 517.871094 648.320312 525.464844 C 640.242188 529.109375 635.21875 534.328125 635.722656 541.230469 C 636.125 546.757812 640.945312 550.886719 645.535156 553.167969 C 654.75 557.742188 668.210938 556.617188 681.902344 552.148438 C 697.539062 547.046875 713.464844 537.679688 723.535156 528.292969 C 715.125 548.992188 708.140625 568.398438 702.941406 585.644531 Z M 786.625 396.136719 C 762.457031 409.734375 733.730469 420.433594 705.757812 418.160156 C 699.839844 417.675781 692.277344 416.5625 686.441406 413.585938 C 681.148438 410.886719 677.347656 406.574219 678.230469 399.507812 C 678.796875 394.988281 681.207031 390.949219 685.054688 388.472656 C 692.160156 383.894531 703.257812 382.753906 715.261719 383.195312 C 733.851562 383.875 754.585938 388.5 766.867188 391.359375 C 773.003906 392.785156 779.953125 395.273438 786.625 396.136719 Z M 759.257812 465.605469 C 761.289062 471.828125 764.828125 477.75 767.898438 483.222656 C 779.246094 503.472656 795.09375 525.632812 793.941406 549.925781 C 793.539062 558.410156 790.367188 565.175781 785.976562 569.089844 C 783.269531 571.503906 780.109375 572.804688 776.925781 572.605469 C 771.351562 572.257812 766.015625 567.4375 762.664062 557.1875 C 753.9375 530.507812 756.289062 494.378906 759.257812 465.605469 Z M 728.128906 517.191406 C 727.75 517.335938 727.40625 517.597656 727.160156 517.957031 C 719.539062 529.0625 699.792969 541.917969 680.609375 548.179688 C 668.097656 552.257812 655.8125 553.605469 647.390625 549.425781 C 644.023438 547.753906 640.183594 544.984375 639.886719 540.925781 C 639.5 535.640625 643.851562 532.0625 650.039062 529.269531 C 666.496094 521.839844 696.109375 520.824219 705.039062 519.65625 C 713.128906 518.601562 720.980469 516.582031 728.96875 515.207031 C 728.6875 515.871094 728.40625 516.53125 728.128906 517.191406 Z M 704.515625 591.445312 C 716.878906 617.796875 733.425781 645.523438 728.738281 675.898438 C 728.464844 677.679688 728.105469 679.816406 727.324219 681.695312 C 726.699219 683.207031 725.808594 684.570312 724.273438 685.179688 C 722.6875 685.808594 721.007812 685.425781 719.429688 684.730469 C 717.519531 683.886719 715.746094 682.542969 714.351562 681.363281 C 706.671875 674.859375 702.515625 662.402344 700.648438 648.449219 C 697.984375 628.539062 700.128906 605.535156 704.515625 591.445312 " fill-opacity="1" fill-rule="evenodd"/></g></g></g><g clip-path="url(#ac15b156ba)"><g clip-path="url(#048d55d9c6)"><g clip-path="url(#40d528ae0a)"><path fill="#686d4e" d="M 634.320312 657.140625 C 635.464844 662.632812 640.851562 666.160156 646.34375 665.015625 C 651.832031 663.871094 655.363281 658.484375 654.21875 652.996094 C 653.074219 647.503906 647.6875 643.976562 642.199219 645.121094 C 636.707031 646.261719 633.175781 651.648438 634.320312 657.140625 Z M 637.828125 656.414062 C 637.085938 652.855469 639.371094 649.367188 642.929688 648.625 C 646.484375 647.882812 649.972656 650.167969 650.714844 653.726562 C 651.457031 657.28125 649.171875 660.773438 645.613281 661.511719 C 642.058594 662.253906 638.570312 659.96875 637.828125 656.414062 " fill-opacity="1" fill-rule="evenodd"/></g></g></g><g clip-path="url(#0f3821d89c)"><g clip-path="url(#3907d7b1b9)"><g clip-path="url(#793da607b9)"><path fill="#686d4e" d="M 658.691406 683.9375 C 659.835938 689.425781 665.222656 692.957031 670.714844 691.8125 C 676.203125 690.667969 679.734375 685.28125 678.585938 679.789062 C 677.445312 674.300781 672.054688 670.773438 666.566406 671.917969 C 661.078125 673.058594 657.546875 678.445312 658.691406 683.9375 Z M 662.199219 683.207031 C 661.453125 679.648438 663.738281 676.160156 667.296875 675.417969 C 670.851562 674.675781 674.34375 676.964844 675.082031 680.519531 C 675.824219 684.078125 673.539062 687.566406 669.984375 688.304688 C 666.425781 689.046875 662.9375 686.761719 662.199219 683.207031 " fill-opacity="1" fill-rule="evenodd"/></g></g></g><g clip-path="url(#8fd6992eed)"><g clip-path="url(#49f3981af7)"><g clip-path="url(#7c3a4bd1d1)"><path fill="#686d4e" d="M 635.277344 682.269531 C 636.171875 686.566406 640.386719 689.324219 644.679688 688.429688 C 648.972656 687.535156 651.734375 683.324219 650.839844 679.027344 C 649.945312 674.734375 645.730469 671.976562 641.4375 672.871094 C 637.144531 673.765625 634.382812 677.976562 635.277344 682.269531 Z M 638.78125 681.542969 C 638.292969 679.183594 639.808594 676.867188 642.167969 676.375 C 644.527344 675.886719 646.839844 677.402344 647.335938 679.757812 C 647.828125 682.121094 646.308594 684.433594 643.949219 684.925781 C 641.589844 685.417969 639.277344 683.902344 638.78125 681.542969 " fill-opacity="1" fill-rule="evenodd"/></g></g></g><g clip-path="url(#f96112e238)"><g clip-path="url(#1366363fcb)"><g clip-path="url(#13f231724c)"><path fill="#686d4e" d="M 1071.5 53.40625 C 1029.722656 0.160156 957.636719 -27.15625 929.878906 -91.75 C 923.492188 -106.613281 920.566406 -122.566406 913.667969 -137.3125 C 907.0625 -151.429688 898.660156 -164.691406 888.453125 -176.484375 C 867.675781 -200.488281 839.523438 -218.457031 811.390625 -232.664062 C 781.910156 -247.546875 750.296875 -258.238281 718.019531 -265.117188 C 689.121094 -271.277344 658.648438 -275.738281 629.246094 -270.46875 C 603.246094 -265.808594 578.457031 -252.632812 566.847656 -227.824219 C 554.191406 -200.789062 559.96875 -168.242188 573.308594 -142.652344 C 603.574219 -84.59375 677.121094 -43.460938 671.875 29.5625 C 667.648438 88.382812 623.105469 135.199219 613.335938 192.78125 C 603.523438 250.632812 635.347656 312.332031 693.894531 327.925781 C 721.160156 335.191406 750.234375 331.164062 773.972656 315.785156 C 798.035156 300.195312 815.050781 276.394531 834.398438 255.75 C 843.976562 245.527344 854.289062 235.894531 866.28125 228.546875 C 882.027344 218.894531 900.171875 214.609375 918.402344 212.9375 C 951.503906 209.902344 984.914062 214.800781 1017.847656 209.28125 C 1044.929688 204.746094 1072.058594 193.320312 1087.105469 169.15625 C 1101.933594 145.347656 1100.648438 115.269531 1091.402344 89.667969 C 1086.691406 76.632812 1079.886719 64.425781 1071.5 53.40625 C 1068.804688 49.863281 1063.125 53.84375 1065.839844 57.40625 C 1082.828125 79.726562 1094.316406 108.757812 1090.894531 137.183594 C 1087.289062 167.097656 1065.96875 187.886719 1038.21875 197.222656 C 979.394531 217.015625 911.460938 188.9375 857.398438 226.050781 C 813.257812 256.351562 789.449219 318.226562 730.574219 324.089844 C 701.519531 326.984375 671.5625 316.375 650.898438 295.738281 C 629.472656 274.335938 618.355469 243.894531 618.398438 213.84375 C 618.480469 157.273438 658.574219 110.878906 673.617188 58.277344 C 681.347656 31.246094 680.769531 3.4375 669.296875 -22.484375 C 656.179688 -52.113281 633.445312 -75.566406 612.546875 -99.757812 C 592.03125 -123.507812 572.078125 -149.796875 567.699219 -181.78125 C 563.574219 -211.890625 575.292969 -241.136719 603.285156 -255.042969 C 628.191406 -267.414062 657.894531 -267.4375 684.859375 -263.832031 C 716.671875 -259.578125 748.070312 -251.734375 777.960938 -240.007812 C 807.46875 -228.433594 835.574219 -213.046875 860.515625 -193.421875 C 885.585938 -173.695312 903.980469 -147.359375 914.316406 -117.1875 C 919.273438 -102.714844 922.800781 -88.605469 930.523438 -75.203125 C 938.335938 -61.628906 948.308594 -49.378906 959.207031 -38.171875 C 981.5 -15.253906 1008.265625 2.582031 1032.460938 23.328125 C 1044.574219 33.714844 1055.976562 44.835938 1065.839844 57.40625 C 1068.582031 60.902344 1074.265625 56.929688 1071.5 53.40625 Z M 1071.5 53.40625 " fill-opacity="1" fill-rule="nonzero"/></g></g></g></svg>