<svg xmlns="http://www.w3.org/2000/svg" xmlns:xlink="http://www.w3.org/1999/xlink" width="1080" zoomAndPan="magnify" viewBox="0 0 810 1439.999935" height="1920" preserveAspectRatio="xMidYMid meet" version="1.0"><defs><filter x="0%" y="0%" width="100%" height="100%" id="5f88006df1"><feColorMatrix values="0 0 0 0 1 0 0 0 0 1 0 0 0 0 1 0 0 0 1 0" color-interpolation-filters="sRGB"/></filter><mask id="e6c944cbd6"><g filter="url(#5f88006df1)"><rect x="-81" width="972" fill="#000000" y="-143.999994" height="1727.999922" fill-opacity="0.2"/></g></mask><clipPath id="6ae4621b48"><path d="M 0 0 L 810 0 L 810 1440 L 0 1440 Z M 0 0 " clip-rule="nonzero"/></clipPath><clipPath id="e0da171563"><rect x="0" width="810" y="0" height="1440"/></clipPath></defs><rect x="-81" width="972" fill="#ffffff" y="-143.999994" height="1727.999922" fill-opacity="1"/><rect x="-81" width="972" fill="#ffffff" y="-143.999994" height="1727.999922" fill-opacity="1"/><path fill="#7da2b0" d="M 646.121094 1342.777344 C 623.707031 1330.03125 593.664062 1329.59375 574.628906 1310.582031 C 545.140625 1281.109375 536.582031 1232.464844 503.511719 1204.753906 C 473.390625 1179.496094 436.527344 1185.582031 401.402344 1172.082031 C 370.546875 1160.222656 330.089844 1130.871094 315.894531 1102.089844 C 306.941406 1083.945312 303.839844 1064.359375 289.609375 1049.078125 C 275.496094 1033.960938 261.304688 1023.660156 249.167969 1006.386719 C 223.964844 970.511719 204.476562 947.34375 164.726562 928.546875 C 133.558594 913.804688 94.578125 900.203125 72.203125 873.519531 C 52.042969 849.464844 28.34375 812.207031 0 788.113281 L 0 922.71875 C 0.375 923.210938 0.691406 923.746094 1.066406 924.238281 C 17.730469 946.277344 37.355469 954.421875 47.28125 980.214844 C 56.570312 1004.351562 70.484375 1026.03125 80.507812 1049.433594 C 88.273438 1067.519531 101.695312 1094.855469 114.917969 1108.753906 C 130.433594 1125.058594 157.890625 1135.257812 177.574219 1144.292969 C 203.84375 1156.328125 214.753906 1170.242188 225.703125 1197.085938 C 235.585938 1221.296875 231.792969 1246.402344 252.230469 1266.5625 C 273.003906 1287.078125 303.660156 1291.03125 324.039062 1311.054688 C 337.480469 1324.257812 333.507812 1330.820312 336.570312 1347.761719 C 339.910156 1366.222656 346.890625 1374.148438 361.296875 1386.640625 C 381.597656 1404.230469 395.789062 1419.570312 406.601562 1439.808594 L 726.113281 1439.808594 C 715.222656 1417.769531 702.15625 1396.046875 698.382812 1390.195312 C 685.019531 1369.460938 666.875 1354.578125 646.121094 1342.777344 Z M 646.121094 1342.777344 " fill-opacity="1" fill-rule="nonzero"/><path fill="#ece1d1" d="M 361.277344 1386.640625 C 346.890625 1374.148438 339.890625 1366.222656 336.550781 1347.761719 C 333.488281 1330.820312 337.460938 1324.257812 324.019531 1311.054688 C 303.640625 1291.03125 272.984375 1287.078125 252.210938 1266.5625 C 231.792969 1246.402344 235.585938 1221.296875 225.683594 1197.085938 C 214.714844 1170.242188 203.824219 1156.308594 177.554688 1144.292969 C 157.867188 1135.277344 130.414062 1125.058594 114.898438 1108.753906 C 101.695312 1094.855469 88.253906 1067.539062 80.484375 1049.433594 C 70.445312 1026.03125 56.53125 1004.371094 47.261719 980.214844 C 37.355469 954.441406 17.710938 946.296875 1.046875 924.238281 C 0.671875 923.746094 0.355469 923.210938 -0.0195312 922.71875 L -0.0195312 960.648438 C 9.46875 974.917969 17.75 990.21875 27.613281 1004.132812 C 55.324219 1043.230469 73.171875 1089.402344 102.722656 1126.542969 C 123.140625 1152.199219 139.089844 1151.960938 167.316406 1162.632812 C 198.25 1174.316406 203.46875 1199.851562 214.496094 1227.664062 C 229.816406 1266.246094 250.925781 1267.351562 281.207031 1290.992188 C 300.003906 1305.679688 321.035156 1326.945312 325.738281 1351.019531 C 332.339844 1384.957031 329.457031 1405.59375 358.351562 1429.273438 C 362.800781 1432.910156 366.613281 1436.308594 370.035156 1439.808594 L 406.542969 1439.808594 C 395.769531 1419.570312 381.578125 1404.230469 361.277344 1386.640625 Z M 361.277344 1386.640625 " fill-opacity="1" fill-rule="nonzero"/><path fill="#9fc5c8" d="M 325.757812 1351 C 321.074219 1326.925781 300.042969 1305.660156 281.226562 1290.972656 C 250.945312 1267.3125 229.835938 1266.226562 214.519531 1227.644531 C 203.488281 1199.832031 198.25 1174.296875 167.335938 1162.613281 C 139.109375 1151.960938 123.160156 1152.199219 102.742188 1126.523438 C 73.210938 1089.402344 55.34375 1043.230469 27.632812 1004.132812 C 17.769531 990.21875 9.488281 974.917969 0 960.648438 L 0 1439.789062 L 370.074219 1439.789062 C 366.65625 1436.289062 362.839844 1432.890625 358.390625 1429.253906 C 329.476562 1405.59375 332.378906 1384.9375 325.757812 1351 Z M 325.757812 1351 " fill-opacity="1" fill-rule="nonzero"/><path fill="#cfa96f" d="M 29.808594 646.195312 C 53.863281 668.90625 93.433594 672.820312 123.238281 685.84375 C 139.84375 693.097656 155.339844 693.515625 170.042969 704.523438 C 182.160156 713.597656 193.921875 731.679688 205.128906 739.09375 C 215.328125 745.855469 227.03125 740.65625 239.519531 748.265625 C 248.335938 753.640625 247.171875 764 253.515625 769.910156 C 260.394531 776.332031 267.410156 776.785156 274.566406 781.628906 C 291.761719 793.25 296.902344 805.625 307.871094 821.398438 C 319.238281 837.746094 337.363281 846.085938 347.441406 863.636719 C 356.121094 878.757812 353.390625 901.804688 370.191406 909.238281 C 385.492188 916.015625 404.367188 903.761719 419.707031 902.417969 C 455.34375 899.316406 485.800781 924.101562 510.054688 939.835938 C 528.378906 951.714844 548.339844 954.738281 563.621094 971.300781 C 579.097656 988.0625 578.1875 1006.386719 590.265625 1023.660156 C 618.648438 1064.28125 689.191406 1027.535156 717.714844 1070.800781 C 726.253906 1083.769531 723.878906 1096.082031 739.179688 1106.558594 C 751.453125 1114.957031 767.109375 1117.054688 780.253906 1123.179688 C 790.074219 1127.765625 799.917969 1132.097656 809.863281 1136.128906 L 809.863281 0.03125 L 0 0.03125 L 0 610.714844 C 11.742188 624.945312 22.394531 639.199219 29.808594 646.195312 Z M 29.808594 646.195312 " fill-opacity="1" fill-rule="nonzero"/><path fill="#ece1d1" d="M 702.769531 1374.679688 C 687.628906 1360.488281 680.457031 1340.070312 663.695312 1327.339844 C 649.105469 1316.273438 632.386719 1312.597656 615.859375 1305.304688 C 577.613281 1288.363281 559.09375 1262.371094 541.34375 1227.050781 C 527.230469 1199.003906 477.144531 1174.59375 446.902344 1161.070312 C 405.492188 1142.570312 368.175781 1150.378906 338.960938 1108.121094 C 317.082031 1076.496094 306.921875 1043.386719 282.292969 1014.234375 C 260.296875 988.199219 236.871094 952.78125 207.894531 937.503906 C 179.097656 922.300781 142.726562 910.859375 116.835938 890.359375 C 101.871094 878.5 90.941406 861.542969 76.75 849.109375 C 61.945312 836.125 42.949219 823.433594 30.796875 808.550781 C 21.761719 797.480469 12.609375 771.964844 0.0195312 754.6875 L 0.0195312 788.171875 C 28.363281 812.246094 52.0625 849.523438 72.242188 873.597656 C 94.617188 900.28125 133.597656 913.882812 164.765625 928.628906 C 204.515625 947.425781 224.003906 970.570312 249.207031 1006.464844 C 261.34375 1023.738281 275.535156 1034.019531 289.648438 1049.160156 C 303.878906 1064.417969 306.980469 1084.003906 315.9375 1102.171875 C 330.128906 1130.949219 370.585938 1160.300781 401.441406 1172.160156 C 436.566406 1185.640625 473.429688 1179.574219 503.550781 1204.832031 C 536.621094 1232.546875 545.160156 1281.1875 574.667969 1310.660156 C 593.703125 1329.675781 623.746094 1330.089844 646.160156 1342.859375 C 666.894531 1354.65625 685.0625 1369.542969 698.402344 1390.277344 C 702.15625 1396.105469 715.242188 1417.847656 726.132812 1439.886719 L 757.839844 1439.886719 C 755.25 1434.371094 752.601562 1428.996094 749.359375 1423.441406 C 736.175781 1400.75 720.679688 1391.480469 702.769531 1374.679688 Z M 702.769531 1374.679688 " fill-opacity="1" fill-rule="nonzero"/><path fill="#ece1d1" d="M 780.253906 1123.160156 C 767.109375 1117.035156 751.453125 1114.9375 739.179688 1106.539062 C 723.878906 1096.0625 726.273438 1083.75 717.714844 1070.78125 C 689.191406 1027.496094 618.648438 1064.261719 590.265625 1023.640625 C 578.1875 1006.367188 579.097656 988.042969 563.621094 971.28125 C 548.339844 954.738281 528.378906 951.695312 510.054688 939.816406 C 485.800781 924.082031 455.34375 899.273438 419.707031 902.398438 C 404.347656 903.742188 385.492188 915.996094 370.191406 909.21875 C 353.410156 901.785156 356.140625 878.738281 347.441406 863.617188 C 337.363281 846.066406 319.238281 837.726562 307.871094 821.378906 C 296.921875 805.605469 291.761719 793.230469 274.566406 781.609375 C 267.410156 776.785156 260.414062 776.3125 253.515625 769.890625 C 247.191406 763.980469 248.335938 753.621094 239.519531 748.246094 C 227.027344 740.636719 215.328125 745.832031 205.128906 739.074219 C 193.921875 731.660156 182.160156 713.574219 170.042969 704.503906 C 155.359375 693.515625 139.863281 693.078125 123.238281 685.824219 C 93.414062 672.800781 53.863281 668.886719 29.808594 646.175781 C 22.394531 639.179688 11.742188 624.945312 0 610.695312 L 0 644.199219 C 5 645.542969 10.378906 646.6875 14.507812 649.496094 C 21.644531 654.378906 25.300781 662.816406 32.199219 668.46875 C 45.957031 679.757812 62.636719 684.164062 79.578125 688 C 96.238281 691.773438 112.644531 694.125 128.792969 699.820312 C 152.195312 708.082031 154.371094 718.953125 172 733.835938 C 188.347656 747.632812 209.042969 747.535156 225.746094 758.304688 C 235.527344 764.609375 235.648438 773.605469 243.433594 781.351562 C 250.472656 788.351562 259.582031 789.398438 267.390625 795.148438 C 283.835938 807.285156 285.992188 824.9375 299.035156 841.421875 C 311.132812 856.679688 328.386719 869.585938 338.46875 886.191406 C 351.472656 907.558594 349.300781 919.691406 379.1875 919.21875 C 395.769531 918.960938 408.300781 919.851562 425.695312 921.984375 C 468.941406 927.304688 500.054688 940.25 534.484375 967.488281 C 568.046875 994.050781 568.582031 1049.851562 615.800781 1058.726562 C 633.847656 1062.125 662.25 1053.960938 678.734375 1062.34375 C 698.421875 1072.363281 705.4375 1099.167969 723.542969 1113.199219 C 749.140625 1133.023438 779.601562 1146.070312 809.84375 1159.273438 L 809.84375 1136.070312 C 799.917969 1132.097656 790.074219 1127.746094 780.253906 1123.160156 Z M 780.253906 1123.160156 " fill-opacity="1" fill-rule="nonzero"/><path fill="#588297" d="M 678.753906 1062.382812 C 662.269531 1054 633.867188 1062.144531 615.820312 1058.765625 C 568.601562 1049.890625 568.066406 994.089844 534.503906 967.527344 C 500.09375 940.289062 468.960938 927.34375 425.714844 922.027344 C 408.300781 919.890625 395.769531 919 379.207031 919.257812 C 349.320312 919.714844 351.492188 907.597656 338.488281 886.230469 C 328.386719 869.625 311.132812 856.71875 299.054688 841.460938 C 286.011719 824.976562 283.855469 807.324219 267.410156 795.1875 C 259.601562 789.4375 250.511719 788.390625 243.453125 781.390625 C 235.648438 773.644531 235.546875 764.652344 225.765625 758.34375 C 209.0625 747.574219 188.386719 747.671875 172.019531 733.875 C 154.390625 718.992188 152.195312 708.121094 128.8125 699.859375 C 112.644531 694.167969 96.257812 691.8125 79.597656 688.039062 C 62.65625 684.203125 45.976562 679.796875 32.21875 668.511719 C 25.339844 662.855469 21.664062 654.417969 14.527344 649.535156 C 10.398438 646.707031 5.019531 645.582031 0.0195312 644.238281 L 0.0195312 754.667969 C 12.589844 771.964844 21.742188 797.480469 30.796875 808.53125 C 42.96875 823.414062 61.945312 836.105469 76.75 849.089844 C 90.941406 861.542969 101.871094 878.5 116.835938 890.339844 C 142.726562 910.859375 179.097656 922.28125 207.894531 937.480469 C 236.871094 952.761719 260.296875 988.179688 282.292969 1014.210938 C 306.941406 1043.367188 317.101562 1076.457031 338.960938 1108.101562 C 368.175781 1150.359375 405.492188 1142.550781 446.902344 1161.050781 C 477.164062 1174.574219 527.25 1198.984375 541.34375 1227.03125 C 559.113281 1262.351562 577.632812 1288.34375 615.859375 1305.28125 C 632.367188 1312.597656 649.105469 1316.253906 663.695312 1327.320312 C 680.457031 1340.050781 687.648438 1360.46875 702.769531 1374.660156 C 720.679688 1391.460938 736.175781 1400.730469 749.320312 1423.324219 C 752.5625 1428.878906 755.210938 1434.253906 757.796875 1439.769531 L 809.863281 1439.769531 L 809.863281 1159.292969 C 779.621094 1146.070312 749.160156 1133.023438 723.5625 1113.21875 C 705.460938 1099.207031 698.441406 1072.402344 678.753906 1062.382812 Z M 678.753906 1062.382812 " fill-opacity="1" fill-rule="nonzero"/><path fill="#ece1d1" d="M 232.621094 1347.957031 C 239.085938 1361.832031 245.234375 1375.808594 254.34375 1388.21875 C 262.488281 1399.308594 272.234375 1409.054688 281.820312 1418.878906 C 288.402344 1425.617188 294.507812 1432.574219 300.339844 1439.808594 L 302.730469 1439.808594 C 297.238281 1432.871094 291.484375 1426.191406 285.238281 1419.746094 C 275.097656 1409.289062 264.585938 1399.070312 255.945312 1387.292969 C 247.011719 1375.117188 240.886719 1361.398438 234.558594 1347.761719 C 228.945312 1335.644531 222.839844 1321.628906 212.777344 1312.476562 C 205.308594 1305.679688 195.640625 1301.960938 186.628906 1297.671875 C 177.140625 1293.148438 165.617188 1286.980469 162.59375 1275.992188 C 160.855469 1269.644531 164.015625 1262.886719 161.546875 1256.640625 C 159.707031 1251.976562 155.4375 1248.339844 151.644531 1245.292969 C 141.957031 1237.507812 131.324219 1230.550781 120.730469 1224.085938 C 108.058594 1216.335938 94.972656 1209.261719 82.796875 1200.742188 C 70.109375 1191.867188 59.019531 1181.273438 49.671875 1168.917969 C 45.382812 1163.246094 40.894531 1157.21875 37.890625 1150.734375 C 35.105469 1144.707031 33.484375 1138.222656 30.933594 1132.117188 C 26.742188 1122.035156 18.9375 1115.375 9.824219 1109.742188 C 6.621094 1107.765625 3.320312 1106.003906 -0.0195312 1104.34375 L -0.0195312 1106.359375 C 1.085938 1106.933594 2.214844 1107.488281 3.300781 1108.082031 C 13.363281 1113.617188 23.582031 1120.316406 28.503906 1131.089844 C 31.347656 1137.335938 32.949219 1144.035156 35.695312 1150.320312 C 38.5625 1156.882812 42.910156 1162.851562 47.140625 1168.582031 C 55.382812 1179.75 65.007812 1189.695312 76.078125 1198.09375 C 87.699219 1206.929688 100.429688 1214.125 112.941406 1221.554688 C 124.582031 1228.453125 135.910156 1235.886719 146.820312 1243.910156 C 151.761719 1247.546875 158.519531 1252.253906 160.242188 1258.519531 C 161.980469 1264.84375 158.957031 1271.523438 161.230469 1277.847656 C 168.363281 1297.652344 194.710938 1300.382812 209.457031 1312.082031 C 220.449219 1320.820312 226.851562 1335.542969 232.621094 1347.957031 Z M 232.621094 1347.957031 " fill-opacity="1" fill-rule="nonzero"/><path fill="#ece1d1" d="M 211.175781 1283.105469 C 221.871094 1295.597656 230.605469 1309.613281 240.609375 1322.636719 C 245.234375 1328.644531 250.589844 1334.023438 255.234375 1339.992188 C 259.265625 1345.171875 261.382812 1351.121094 263.65625 1357.207031 C 268.558594 1370.3125 276.660156 1380.648438 286.070312 1390.828125 C 296.527344 1402.136719 306.050781 1414.191406 316.171875 1425.796875 C 320.144531 1430.359375 323.78125 1435.027344 327.242188 1439.789062 L 329.988281 1439.789062 C 322.65625 1429.90625 314.117188 1420.933594 306.210938 1411.523438 C 301.425781 1405.832031 296.941406 1399.941406 291.921875 1394.445312 C 286.917969 1388.972656 281.742188 1383.65625 277.175781 1377.804688 C 272.390625 1371.695312 268.636719 1365.113281 265.867188 1357.878906 C 263.914062 1352.78125 262.273438 1347.542969 259.425781 1342.820312 C 255.789062 1336.828125 250.492188 1332.027344 246.082031 1326.609375 C 240.648438 1319.949219 235.6875 1312.953125 230.707031 1305.957031 C 222.226562 1294.015625 213.765625 1282 202.992188 1271.976562 C 192.855469 1262.550781 181.546875 1254.464844 171.84375 1244.582031 C 162.296875 1234.878906 156.625 1222.386719 146.976562 1212.800781 C 138.519531 1204.417969 128.199219 1198.46875 117.824219 1192.777344 C 105.984375 1186.292969 95.074219 1179.808594 85.171875 1170.519531 C 74.65625 1160.65625 66.058594 1150.242188 60.503906 1136.878906 C 57.992188 1130.851562 55.402344 1124.960938 51.09375 1119.980469 C 48.820312 1117.351562 46.25 1115 43.980469 1112.371094 C 41.410156 1109.386719 39.589844 1106.023438 37.59375 1102.664062 C 35.28125 1098.730469 32.871094 1094.835938 29.707031 1091.496094 C 25.339844 1086.871094 19.84375 1083.589844 15.121094 1079.378906 C 6.9375 1072.066406 3.0625 1063.054688 -0.0195312 1053.210938 L -0.0195312 1059.714844 C 0.0976562 1060.070312 0.21875 1060.445312 0.355469 1060.800781 C 2.234375 1065.839844 4.785156 1070.585938 8.183594 1074.773438 C 12.453125 1080.050781 17.867188 1083.75 23.085938 1087.980469 C 27.179688 1091.28125 30.636719 1094.976562 33.484375 1099.421875 C 36.683594 1104.425781 39.214844 1109.78125 43.1875 1114.246094 C 48.484375 1120.195312 53.425781 1125.335938 56.746094 1132.707031 C 59.773438 1139.449219 62.144531 1146.367188 66.453125 1152.433594 C 73.707031 1162.652344 82.976562 1171.785156 92.761719 1179.574219 C 102.542969 1187.359375 113.96875 1192.539062 124.742188 1198.785156 C 136.105469 1205.367188 146.386719 1213.234375 154.074219 1224.007812 C 157.910156 1229.363281 161.050781 1235.09375 165.300781 1240.15625 C 169.726562 1245.414062 174.75 1250.136719 179.925781 1254.644531 C 190.542969 1263.894531 201.964844 1272.355469 211.175781 1283.105469 Z M 211.175781 1283.105469 " fill-opacity="1" fill-rule="nonzero"/><path fill="#ece1d1" d="M 247.109375 1289.609375 C 252.46875 1294.433594 255.394531 1300.003906 258.082031 1306.609375 C 260.808594 1313.289062 263.933594 1319.792969 267.152344 1326.253906 C 273.714844 1339.398438 279.46875 1353.058594 286.542969 1365.925781 C 292.96875 1377.605469 301.605469 1386.621094 311.902344 1394.960938 C 322.203125 1403.28125 331.90625 1411.40625 338.332031 1423.246094 C 341.355469 1428.800781 344.378906 1434.375 347.539062 1439.828125 L 349.65625 1439.828125 C 343.332031 1428.9375 338.289062 1417.117188 329.554688 1407.90625 C 320.835938 1398.714844 309.925781 1391.976562 301.089844 1382.921875 C 290.871094 1372.445312 284.984375 1359.144531 278.894531 1346.058594 C 272.074219 1331.394531 264.484375 1317.183594 258.277344 1302.21875 C 253.832031 1291.488281 244.957031 1285.792969 236.238281 1278.816406 C 216.554688 1263.023438 209.0625 1237.882812 194.097656 1218.332031 C 186.570312 1208.492188 177.121094 1201.355469 166.132812 1195.722656 C 153.738281 1189.375 140.4375 1184.871094 128.4375 1177.734375 C 115.570312 1170.085938 104.898438 1159.175781 94.855469 1148.226562 C 90.011719 1142.925781 85.269531 1137.53125 80.425781 1132.253906 C 75.445312 1126.816406 70.347656 1121.660156 66.355469 1115.414062 C 59 1103.890625 54.515625 1090.824219 47.300781 1079.242188 C 43.386719 1072.976562 39.039062 1066.96875 35.042969 1060.761719 C 30.855469 1054.257812 25.992188 1048.152344 21.960938 1041.570312 C 15.476562 1030.972656 12.53125 1018.207031 4.210938 1008.738281 C 2.886719 1007.234375 1.460938 1005.890625 -0.0195312 1004.585938 L -0.0195312 1007.078125 C 1.976562 1008.957031 3.835938 1010.972656 5.4375 1013.226562 C 9.230469 1018.5625 11.703125 1024.789062 14.371094 1030.71875 C 20.28125 1043.882812 29.273438 1055.304688 37.121094 1067.363281 C 41.015625 1073.351562 45.304688 1079.082031 48.742188 1085.351562 C 51.964844 1091.21875 54.710938 1097.347656 57.675781 1103.355469 C 60.621094 1109.324219 63.765625 1115.234375 67.71875 1120.613281 C 71.589844 1125.890625 76.355469 1130.453125 80.742188 1135.296875 C 90.390625 1145.929688 99.738281 1156.921875 110.472656 1166.507812 C 120.691406 1175.621094 131.957031 1182.242188 144.429688 1187.796875 C 157.136719 1193.46875 170.578125 1198.585938 181.429688 1207.5625 C 200.503906 1223.3125 207.875 1248.316406 222.640625 1267.472656 C 229.636719 1276.484375 238.75 1282.078125 247.109375 1289.609375 Z M 247.109375 1289.609375 " fill-opacity="1" fill-rule="nonzero"/><path fill="#ece1d1" d="M 215.800781 1043.960938 C 229.441406 1051.925781 240.035156 1062.441406 247.527344 1076.335938 C 251.105469 1082.976562 254.089844 1089.914062 257.566406 1096.597656 C 261.777344 1104.699219 268.203125 1111.242188 272.925781 1119.011719 C 277.867188 1127.09375 279.765625 1136.582031 284.625 1144.6875 C 288.640625 1151.386719 294.449219 1156.921875 300.417969 1161.882812 C 306.683594 1167.101562 313.386719 1171.746094 319.691406 1176.90625 C 326.09375 1182.144531 331.332031 1188.269531 337.105469 1194.140625 C 358.609375 1216 386.003906 1226.359375 415.773438 1231.417969 C 432.832031 1234.304688 452.953125 1235.609375 459.097656 1255 C 461.332031 1262.015625 461.609375 1269.488281 463.03125 1276.683594 C 464.496094 1284.074219 467.359375 1291.03125 471.589844 1297.277344 C 475.78125 1303.484375 481.058594 1308.839844 486.472656 1313.960938 C 493.175781 1320.285156 499.125 1326.609375 504.460938 1334.179688 C 509.085938 1340.722656 513.574219 1347.5625 519.582031 1352.9375 C 524.5625 1357.40625 530.335938 1360.882812 536.402344 1363.632812 C 549.683594 1369.660156 564.152344 1372.464844 578.34375 1375.453125 C 592.417969 1378.394531 606.789062 1380.6875 617.203125 1391.441406 C 626.671875 1401.207031 632.304688 1413.914062 640.132812 1424.90625 C 643.867188 1430.144531 648.097656 1434.628906 653 1438.78125 C 653.375 1439.097656 653.730469 1439.453125 654.089844 1439.789062 L 656.519531 1439.789062 C 654.382812 1437.8125 652.210938 1435.855469 650.074219 1433.800781 C 640.191406 1424.332031 634.363281 1411.621094 626.730469 1400.453125 C 619.832031 1390.355469 611.414062 1382.074219 599.4375 1378.554688 C 585.34375 1374.402344 570.714844 1372.386719 556.523438 1368.632812 C 541.996094 1364.777344 527.230469 1359.125 516.933594 1347.71875 C 511.121094 1341.277344 506.675781 1333.726562 501.378906 1326.867188 C 496.160156 1320.105469 489.714844 1314.730469 483.707031 1308.742188 C 477.738281 1302.773438 472.28125 1296.230469 468.726562 1288.5 C 465.246094 1280.953125 464.277344 1272.925781 463.050781 1264.804688 C 462.0625 1258.261719 460.699219 1251.558594 456.886719 1246.023438 C 452.992188 1240.371094 447.101562 1236.636719 440.695312 1234.421875 C 432.832031 1231.695312 424.429688 1231.042969 416.265625 1229.660156 C 408.28125 1228.296875 400.316406 1226.617188 392.507812 1224.421875 C 378.097656 1220.351562 364.402344 1214.164062 352.382812 1205.167969 C 339.238281 1195.347656 329.457031 1182.101562 316.488281 1172.0625 C 309.886719 1166.941406 303.046875 1162.101562 296.921875 1156.40625 C 289.726562 1149.726562 284.824219 1142.253906 281.285156 1133.105469 C 278.003906 1124.605469 274.230469 1117.152344 268.714844 1109.859375 C 263.4375 1102.882812 259.207031 1095.925781 255.394531 1088.039062 C 249.148438 1075.128906 242.722656 1062.738281 231.8125 1053.113281 C 220.425781 1043.050781 205.148438 1038.226562 194.476562 1027.398438 C 184.710938 1017.492188 184.039062 1003.894531 178.761719 991.796875 C 173.601562 979.980469 160.8125 971.597656 148.996094 967.46875 C 140.773438 964.601562 131.917969 964.503906 123.476562 962.445312 C 114.699219 960.292969 106.203125 957.167969 97.644531 954.304688 C 89.359375 951.535156 81 949.066406 72.34375 947.859375 C 64.792969 940.546875 61.273438 930.683594 54.574219 922.757812 C 48.011719 914.988281 39.332031 908.683594 31.546875 902.21875 C 22.671875 894.886719 13.617188 887.75 5.160156 879.925781 C 3.398438 878.304688 1.699219 876.542969 -0.0195312 874.804688 L -0.0195312 877.316406 C 1.679688 879.054688 3.359375 880.773438 5.078125 882.335938 C 12.789062 889.351562 20.953125 895.855469 28.996094 902.476562 C 37.199219 909.238281 46.429688 915.878906 53.289062 924.0625 C 59.910156 931.949219 63.429688 941.652344 70.839844 948.945312 C 70.878906 949.242188 71.039062 949.519531 71.433594 949.578125 C 89.539062 952.011719 106.101562 960.210938 123.773438 964.441406 C 132.152344 966.457031 140.96875 966.519531 149.113281 969.484375 C 156.839844 972.289062 164.746094 977.171875 170.539062 983.003906 C 179.414062 991.9375 180.046875 1004.921875 184.890625 1015.972656 C 191.074219 1029.984375 203.09375 1036.546875 215.800781 1043.960938 Z M 215.800781 1043.960938 " fill-opacity="1" fill-rule="nonzero"/><path fill="#ece1d1" d="M 214.695312 1013.5625 C 229.480469 1021.367188 245.667969 1030.085938 254.1875 1045.105469 C 258.949219 1053.527344 261.402344 1062.976562 266.285156 1071.375 C 271.066406 1079.65625 277.136719 1087.070312 283.066406 1094.539062 C 290.023438 1103.316406 296.289062 1112.351562 301.664062 1122.171875 C 306.941406 1131.820312 311.765625 1141.761719 317.871094 1150.933594 C 328.585938 1167.0625 343.429688 1180.1875 359.894531 1190.226562 C 376.832031 1200.542969 395.53125 1207.71875 414.585938 1213.015625 C 424.25 1215.703125 434.074219 1217.5625 443.820312 1219.875 C 451.964844 1221.792969 459.808594 1225.25 465.859375 1231.160156 C 478.507812 1243.535156 479.023438 1262.15625 486.414062 1277.394531 C 489.617188 1283.976562 493.847656 1289.925781 498.828125 1295.28125 C 505.628906 1302.59375 513.789062 1308.367188 520.707031 1315.5625 C 527.882812 1323.03125 534.1875 1331.511719 542.429688 1337.875 C 550.773438 1344.320312 560.851562 1347.523438 570.261719 1352.027344 C 592.914062 1362.878906 615.742188 1373.375 638.394531 1384.1875 C 655.589844 1392.410156 661.027344 1412.019531 669.40625 1427.59375 C 671.679688 1431.804688 674.269531 1435.816406 676.957031 1439.789062 L 679.230469 1439.789062 C 675.613281 1434.472656 672.152344 1429.074219 669.25 1423.304688 C 665.234375 1415.339844 661.855469 1407.015625 657.113281 1399.445312 C 652.921875 1392.746094 647.585938 1386.777344 640.449219 1383.160156 C 629.378906 1377.546875 617.777344 1372.84375 606.53125 1367.566406 C 595.421875 1362.347656 584.394531 1356.992188 573.382812 1351.554688 C 564.253906 1347.027344 554.289062 1343.925781 545.851562 1338.113281 C 536.304688 1331.570312 529.445312 1321.925781 521.460938 1313.703125 C 514.5625 1306.609375 506.4375 1300.875 499.738281 1293.5625 C 494.242188 1287.59375 489.816406 1280.851562 486.59375 1273.402344 C 482.898438 1264.824219 481.316406 1255.59375 477.933594 1246.914062 C 472.519531 1233.019531 462.222656 1223.292969 447.890625 1219.066406 C 438.761719 1216.375 429.214844 1214.992188 419.980469 1212.601562 C 410.394531 1210.089844 400.910156 1207.164062 391.65625 1203.628906 C 372.128906 1196.15625 353.492188 1185.839844 338.054688 1171.605469 C 329.871094 1164.058594 322.753906 1155.519531 316.925781 1146.03125 C 311.152344 1136.660156 306.449219 1126.71875 300.992188 1117.171875 C 290.773438 1099.265625 275.257812 1084.933594 265.789062 1066.613281 C 261.597656 1058.507812 259.328125 1049.632812 254.425781 1041.886719 C 250.945312 1036.390625 246.4375 1031.765625 241.28125 1027.8125 C 234.125 1022.316406 226.257812 1017.554688 218.253906 1013.363281 C 208.054688 1008.027344 199.238281 1002.492188 194.039062 991.757812 C 189.949219 983.320312 187.140625 974.660156 181.3125 967.132812 C 176.488281 960.90625 170.402344 955.785156 163.542969 951.929688 C 149.566406 944.085938 133.457031 941.375 118.0625 937.777344 C 101.617188 933.945312 83.195312 929.140625 71.925781 915.640625 C 66.253906 908.839844 63.074219 900.679688 59.257812 892.8125 C 55.898438 885.855469 50.976562 880.359375 44.433594 876.269531 C 37.039062 871.664062 28.917969 868.402344 21.820312 863.300781 C 13.421875 857.273438 7.234375 849.128906 1.007812 840.984375 C 0.671875 840.550781 0.355469 840.136719 0.0195312 839.722656 L 0.0195312 842.25 C 6.148438 849.921875 11.859375 858.140625 19.726562 864.050781 C 26.683594 869.269531 34.667969 872.628906 42.121094 877.039062 C 50.046875 881.722656 55.066406 888.007812 58.84375 896.351562 C 62.183594 903.722656 65.660156 911.175781 70.980469 917.378906 C 76.414062 923.726562 83.53125 928.113281 91.140625 931.414062 C 106.203125 937.917969 122.507812 940.308594 138.28125 944.398438 C 155.003906 948.75 171.074219 955.707031 181.332031 970.273438 C 186.90625 978.179688 189.296875 987.46875 194.039062 995.769531 C 198.84375 1004.113281 206.355469 1009.152344 214.695312 1013.5625 Z M 214.695312 1013.5625 " fill-opacity="1" fill-rule="nonzero"/><path fill="#ece1d1" d="M 198.863281 970.769531 C 205.917969 979.148438 212.226562 988.121094 219.101562 996.640625 C 225.625 1004.707031 232.664062 1012.214844 241.0625 1018.363281 C 248.910156 1024.097656 257.605469 1028.839844 264.40625 1035.875 C 272.035156 1043.78125 275.140625 1054.515625 279.960938 1064.160156 C 285.417969 1075.050781 291.625 1085.546875 297.535156 1096.179688 C 303.34375 1106.65625 308.957031 1117.230469 315.183594 1127.492188 C 320.601562 1136.40625 326.292969 1145.714844 333.941406 1152.929688 C 341.019531 1159.570312 349.558594 1163.660156 358.15625 1167.949219 C 368.925781 1173.308594 379.1875 1179.632812 390.253906 1184.355469 C 411.839844 1193.527344 434.667969 1199.023438 457.320312 1204.734375 C 472.757812 1208.628906 492.878906 1213.6875 501.832031 1228.214844 C 507.960938 1238.160156 503.609375 1247.902344 502.285156 1258.417969 C 501.082031 1267.984375 505.210938 1276.464844 512.128906 1282.929688 C 520.15625 1290.417969 531.105469 1293.246094 540.257812 1298.996094 C 550.515625 1305.441406 556.542969 1315.5625 563.855469 1324.871094 C 574.492188 1338.410156 587.160156 1348.292969 603.804688 1353.078125 C 620.980469 1358.019531 640.488281 1357.722656 656.636719 1365.765625 C 666.976562 1370.90625 672.191406 1379.542969 675.574219 1390.296875 C 677.113281 1395.21875 678.4375 1400.199219 680.632812 1404.882812 C 683.023438 1410.003906 686.484375 1414.585938 689.960938 1418.996094 C 695.457031 1425.953125 701.011719 1433.128906 706.882812 1439.847656 L 709.332031 1439.847656 C 703.382812 1433.128906 697.847656 1425.894531 692.253906 1418.957031 C 688.679688 1414.488281 685.101562 1409.84375 682.550781 1404.683594 C 679.507812 1398.5 678.183594 1391.699219 675.832031 1385.253906 C 673.003906 1377.546875 668.574219 1371.003906 661.617188 1366.476562 C 654.464844 1361.8125 645.984375 1359.679688 637.683594 1358.097656 C 620.464844 1354.796875 601.964844 1353.214844 586.6875 1343.847656 C 578.679688 1338.945312 572 1332.085938 566.128906 1324.8125 C 559.390625 1316.429688 553.953125 1306.902344 545.296875 1300.261719 C 536.164062 1293.246094 524.464844 1290.597656 515.511719 1283.402344 C 510.84375 1279.667969 506.792969 1274.765625 504.894531 1268.992188 C 502.859375 1262.828125 504.304688 1256.757812 505.648438 1250.632812 C 507.523438 1242.113281 507.859375 1233.910156 502.820312 1226.398438 C 498.628906 1220.152344 492.167969 1215.765625 485.546875 1212.464844 C 468.921875 1204.160156 449.90625 1201.21875 432.117188 1196.414062 C 420.359375 1193.230469 408.714844 1189.652344 397.351562 1185.265625 C 385.75 1180.777344 375.054688 1174.769531 364.085938 1168.980469 C 354.695312 1164.019531 344.753906 1160.066406 336.667969 1152.988281 C 327.972656 1145.378906 321.746094 1135 315.855469 1125.179688 C 309.710938 1114.898438 304.117188 1104.324219 298.265625 1093.867188 C 292.59375 1083.710938 286.683594 1073.667969 281.464844 1063.25 C 276.761719 1053.84375 273.714844 1043.386719 266.480469 1035.519531 C 260.375 1028.859375 252.507812 1024.195312 245.132812 1019.09375 C 226.929688 1006.464844 215.347656 988.0625 201.511719 971.222656 C 188.109375 954.894531 170.320312 943.90625 151.167969 935.40625 C 133.042969 927.363281 112.585938 925.40625 94.972656 916.273438 C 84.914062 911.054688 77.34375 903.050781 71.652344 893.324219 C 67.65625 886.507812 64.691406 878.855469 58.308594 873.835938 C 54.808594 871.109375 51.035156 868.796875 47.597656 865.988281 C 43.03125 862.273438 38.761719 858.183594 34.609375 854.011719 C 26.308594 845.691406 18.421875 836.972656 9.367188 829.441406 C 6.109375 826.734375 2.828125 824.046875 -0.078125 820.945312 L -0.078125 823.574219 C 2.113281 825.746094 4.46875 827.761719 6.839844 829.71875 C 15.890625 837.25 23.878906 845.789062 32.160156 854.128906 C 39.097656 861.128906 46.3125 867.628906 54.414062 873.261719 C 62.558594 878.898438 65.820312 887.199219 70.78125 895.421875 C 75.742188 903.644531 82.207031 910.859375 90.488281 915.839844 C 98.652344 920.78125 107.863281 923.625 117.011719 926.136719 C 126.601562 928.765625 136.246094 931.136719 145.476562 934.933594 C 155.695312 939.121094 165.617188 944.164062 174.925781 950.09375 C 184.039062 955.84375 191.964844 962.566406 198.863281 970.769531 Z M 198.863281 970.769531 " fill-opacity="1" fill-rule="nonzero"/><path fill="#ece1d1" d="M 809.863281 1242.785156 C 806.046875 1239.976562 802.292969 1237.050781 798.496094 1234.125 C 790.273438 1227.78125 781.875 1221.59375 772.859375 1216.398438 C 763.3125 1210.882812 753.09375 1207.324219 743.054688 1202.875 C 722.359375 1193.746094 703.226562 1181.390625 684.824219 1168.328125 C 677.492188 1163.128906 670.355469 1157.554688 664.960938 1150.28125 C 660.039062 1143.640625 657.527344 1135.515625 652.605469 1128.953125 C 649.421875 1124.722656 644.976562 1123.753906 639.957031 1123.222656 C 629.222656 1122.054688 618.609375 1121.144531 608.074219 1118.695312 C 586.984375 1113.773438 566.191406 1105.808594 549.390625 1091.890625 C 541.621094 1085.46875 534.425781 1077.996094 529.542969 1069.121094 C 524.601562 1060.128906 520.769531 1050.5625 516.222656 1041.371094 C 511.753906 1032.320312 506.535156 1023.621094 499.519531 1016.308594 C 492.996094 1009.527344 486.238281 1003.320312 480.089844 996.148438 C 474.949219 990.136719 469.496094 984.464844 462.460938 980.691406 C 453.1875 975.730469 442.476562 974.265625 432.179688 973.0625 C 419.984375 971.636719 407.648438 970.726562 395.949219 966.695312 C 385.472656 963.097656 374.878906 959.363281 364.777344 954.777344 C 343.429688 945.09375 327.992188 927.875 314.234375 909.375 C 308.800781 902.082031 303.5625 894.730469 296.902344 888.484375 C 291.011719 882.96875 284.308594 878.5 277.273438 874.585938 C 268.714844 869.84375 260.078125 866.285156 253.496094 858.734375 C 247.742188 852.132812 243.769531 844.246094 239.007812 836.953125 C 234.164062 829.542969 228.414062 823.214844 221.039062 818.234375 C 216.730469 815.332031 212.183594 812.800781 207.976562 809.777344 C 202.679688 805.960938 198.605469 801.277344 194.515625 796.277344 C 188.289062 788.648438 181.726562 782.558594 172.277344 779.277344 C 162.710938 775.957031 152.414062 775.363281 142.867188 771.90625 C 133.320312 768.445312 127.054688 761.984375 121.460938 753.800781 C 117.171875 747.535156 112.761719 740.597656 106.300781 736.308594 C 98.730469 731.265625 89.636719 732.253906 81.078125 733.300781 C 71.433594 734.488281 62.992188 734.390625 54.890625 728.378906 C 49.296875 724.25 44.75 718.714844 38.425781 715.632812 C 30.933594 711.996094 23.480469 712.925781 15.8125 715.355469 C 10.554688 717.015625 4.722656 718.242188 0 715.058594 L 0 717.113281 C 4.863281 719.742188 10.632812 718.953125 16.308594 717.152344 C 26.269531 713.992188 35.023438 714.464844 43.386719 721.046875 C 48.742188 725.277344 53.328125 730.457031 59.574219 733.421875 C 67.183594 737.019531 75.089844 735.871094 83.15625 734.921875 C 88.035156 734.351562 93.058594 733.796875 97.917969 734.824219 C 103.652344 736.03125 108.019531 739.589844 111.816406 743.878906 C 117.152344 749.886719 120.808594 757.160156 126.203125 763.109375 C 139.703125 777.992188 160.179688 774.910156 176.902344 783.191406 C 187.261719 788.308594 192.597656 798.234375 200.542969 806.039062 C 208.3125 813.667969 218.746094 817.722656 226.792969 825.015625 C 239.816406 836.875 244.621094 855.296875 258.65625 866.226562 C 265.492188 871.542969 273.933594 874.609375 281.304688 879.09375 C 288.621094 883.5625 295.203125 888.9375 300.933594 895.300781 C 307.753906 902.871094 313.285156 911.511719 319.652344 919.457031 C 326.429688 927.957031 333.785156 936.097656 342.183594 943.015625 C 350.109375 949.558594 358.90625 954.402344 368.375 958.355469 C 378.277344 962.507812 388.59375 966.539062 398.890625 969.582031 C 420.199219 975.90625 445.679688 971.71875 464.871094 984.269531 C 472.066406 988.972656 477.324219 995.832031 482.878906 1002.234375 C 489.753906 1010.179688 498.214844 1016.527344 504.441406 1025.023438 C 516.4375 1041.332031 520.867188 1062.007812 533.160156 1078.015625 C 544.347656 1092.566406 560.457031 1104.109375 577.476562 1110.789062 C 597.261719 1118.535156 616.988281 1122.984375 638.117188 1124.902344 C 641.320312 1125.199219 644.996094 1125.375 647.863281 1127.035156 C 651.003906 1128.855469 652.703125 1132.414062 654.304688 1135.515625 C 658 1142.710938 661.660156 1149.765625 667.113281 1155.835938 C 672.746094 1162.101562 679.703125 1167.023438 686.582031 1171.824219 C 695.714844 1178.191406 704.964844 1184.394531 714.53125 1190.089844 C 723.921875 1195.683594 733.605469 1200.78125 743.648438 1205.128906 C 753.945312 1209.597656 764.28125 1213.371094 773.949219 1219.164062 C 786.636719 1226.753906 797.824219 1236.636719 809.863281 1245.15625 Z M 809.863281 1242.785156 " fill-opacity="1" fill-rule="nonzero"/><path fill="#ece1d1" d="M 809.863281 1221.734375 C 804.328125 1218.628906 799.03125 1215.09375 794.128906 1210.921875 C 786.796875 1204.675781 781.398438 1196.511719 773.808594 1190.601562 C 766.574219 1184.96875 758.113281 1181.332031 749.914062 1177.378906 C 740.660156 1172.933594 733.210938 1167.59375 725.460938 1160.933594 C 719.671875 1155.953125 712.632812 1153.226562 705.378906 1151.148438 C 697.613281 1148.957031 689.507812 1147.277344 682.707031 1142.691406 C 674.683594 1137.292969 670.613281 1129.050781 666.460938 1120.652344 C 663.277344 1114.207031 659.640625 1106.796875 653.097656 1103.140625 C 645.84375 1099.066406 636.457031 1101.222656 628.628906 1101.875 C 619.042969 1102.664062 609.417969 1100.886719 600.046875 1098.808594 C 591.667969 1096.953125 583.445312 1094.226562 576.191406 1089.578125 C 568.066406 1084.382812 561.207031 1076.910156 556.464844 1068.527344 C 551.78125 1060.246094 550.179688 1050.699219 545.773438 1042.320312 C 541.640625 1034.472656 534.226562 1028.324219 527.332031 1022.96875 C 520.253906 1017.472656 508.632812 1012.214844 508.15625 1002.015625 C 507.761719 993.480469 511.933594 986.246094 506.261719 978.496094 C 502.367188 973.199219 496.296875 969.679688 490.449219 966.972656 C 475.582031 960.113281 458.882812 956.8125 442.691406 955.152344 C 403.160156 951.0625 355.25 954.539062 328.980469 918.269531 C 323.683594 910.957031 319.867188 902.753906 315.046875 895.164062 C 309.550781 886.527344 302.632812 878.976562 295.933594 871.285156 C 289.292969 863.636719 283.835938 855.296875 277.648438 847.3125 C 272.09375 840.136719 265.59375 833.8125 258.277344 828.414062 C 250.15625 822.425781 240.390625 818.589844 233.078125 811.574219 C 226.515625 805.269531 222.066406 797.285156 216.613281 790.089844 C 204.675781 774.277344 186.648438 767.792969 169.15625 759.964844 C 158.835938 755.339844 149.410156 749.746094 140.59375 742.632812 C 132.550781 736.148438 125.214844 728.421875 116.539062 722.765625 C 110.113281 718.597656 103.214844 716.996094 95.625 717.234375 C 86.632812 717.507812 77.164062 719.527344 68.449219 716.421875 C 61.074219 713.792969 55.660156 707.863281 49.277344 703.613281 C 42.871094 699.34375 35.777344 696.914062 28.207031 695.628906 C 18.9375 694.066406 9.390625 693.929688 -0.0195312 693 L -0.0195312 694.441406 C 15.457031 695.886719 31.785156 695.609375 45.144531 703.21875 C 51.925781 707.074219 57.300781 713.023438 64.238281 716.601562 C 71.90625 720.554688 80.230469 720.097656 88.589844 719.507812 C 97.246094 718.914062 105.46875 718.558594 113.296875 722.964844 C 122.882812 728.378906 130.75 737.039062 139.289062 743.9375 C 147.394531 750.480469 156.011719 755.933594 165.460938 760.300781 C 175.183594 764.789062 185.265625 768.5625 194.671875 773.742188 C 203.746094 778.742188 210.839844 785.109375 216.871094 793.527344 C 221.730469 800.328125 226.101562 807.5625 232.246094 813.332031 C 238.96875 819.621094 247.644531 823.195312 255.136719 828.433594 C 263.515625 834.285156 270.890625 841.382812 277.035156 849.5625 C 283.183594 857.746094 288.855469 866.007812 295.617188 873.738281 C 302.910156 882.078125 310.261719 890.359375 315.796875 900.046875 C 324.117188 914.613281 332.085938 927.757812 346.433594 937.125 C 363.808594 948.472656 383.851562 952.484375 404.25 954.222656 C 424.882812 955.984375 445.636719 956.082031 465.898438 960.867188 C 473.941406 962.761719 481.988281 965.113281 489.519531 968.59375 C 496.496094 971.816406 504.957031 976.578125 507.226562 984.503906 C 509.71875 993.183594 503.296875 1001.878906 508.949219 1010.101562 C 513.453125 1016.644531 521.339844 1020.417969 527.351562 1025.339844 C 535.949219 1032.398438 543.042969 1039.316406 546.976562 1049.949219 C 550.257812 1058.824219 552.964844 1067.519531 558.640625 1075.25 C 568.503906 1088.75 582.238281 1096.539062 598.347656 1100.292969 C 606.730469 1102.25 615.839844 1104.265625 624.5 1103.96875 C 633.414062 1103.671875 645.035156 1100.015625 653.078125 1105.292969 C 660.570312 1110.214844 663.890625 1119.960938 667.804688 1127.589844 C 671.539062 1134.902344 676.503906 1141.328125 683.695312 1145.496094 C 690.238281 1149.292969 697.671875 1150.894531 704.867188 1152.929688 C 708.78125 1154.035156 712.652344 1155.28125 716.289062 1157.097656 C 720.894531 1159.390625 724.394531 1162.632812 728.210938 1166.015625 C 742.460938 1178.644531 762.445312 1182.101562 776.320312 1195.167969 C 783.375 1201.808594 788.96875 1209.417969 796.757812 1215.367188 C 800.90625 1218.53125 805.296875 1221.320312 809.863281 1223.828125 Z M 809.863281 1221.734375 " fill-opacity="1" fill-rule="nonzero"/><path fill="#ece1d1" d="M 809.863281 1182.042969 C 808.496094 1181.234375 807.152344 1180.441406 805.789062 1179.652344 C 797.746094 1174.96875 789.484375 1170.539062 780.726562 1167.339844 C 771.695312 1164.039062 762.066406 1163.089844 753.054688 1159.847656 C 747.875 1157.988281 742.972656 1155.398438 738.882812 1151.664062 C 735.382812 1148.460938 732.796875 1144.429688 729.910156 1140.714844 C 725.441406 1134.960938 719.433594 1132.3125 713.621094 1128.183594 C 699.488281 1118.140625 691.464844 1101.242188 675.789062 1093.097656 C 666.480469 1088.273438 656.164062 1087.742188 645.90625 1088.570312 C 635.191406 1089.421875 623.867188 1091.734375 613.25 1088.90625 C 604.851562 1086.675781 597.242188 1080.765625 590.601562 1075.40625 C 584.175781 1070.230469 578.109375 1064.597656 572.355469 1058.6875 C 564.867188 1050.996094 560.597656 1042.457031 558.144531 1032.042969 C 556.089844 1023.246094 554.84375 1014.253906 551.285156 1005.890625 C 545.121094 991.402344 534.289062 979.070312 521.675781 969.820312 C 495.765625 950.84375 462.796875 943.808594 431.566406 939.734375 C 423.894531 938.726562 416.1875 937.878906 408.480469 937.207031 C 399.839844 936.453125 391.203125 937.046875 382.566406 936.789062 C 373.335938 936.535156 363.628906 935.230469 356.179688 929.320312 C 347.878906 922.738281 346.195312 912.578125 341.375 903.742188 C 337.046875 895.816406 329.75 891.308594 322.417969 886.488281 C 313.542969 880.65625 307.101562 873.441406 302.457031 863.855469 C 294.53125 847.488281 290.476562 828.851562 273.972656 818.550781 C 266.738281 814.027344 258.417969 811.691406 250.808594 807.9375 C 246.695312 805.902344 242.050781 803.46875 239.066406 799.933594 C 235.707031 795.960938 235.429688 790.820312 234.144531 786.015625 C 232.386719 779.457031 229.125 773.683594 223.511719 769.75 C 215.761719 764.335938 206.988281 760.164062 198.054688 757.121094 C 188.089844 753.71875 176.785156 751.921875 167.652344 746.527344 C 159.726562 741.839844 154.410156 734.210938 148.203125 727.648438 C 134.902344 713.597656 115.964844 706.105469 97.089844 703.476562 C 86.101562 701.953125 74.914062 701.300781 64.21875 698.140625 C 53.863281 695.074219 44.613281 689.363281 34.492188 685.6875 C 25.578125 682.445312 16.484375 682.050781 7.175781 680.921875 C 4.761719 680.625 2.390625 680.230469 0.0585938 679.636719 L 0.0585938 681.515625 C 0.433594 681.613281 0.789062 681.734375 1.1875 681.8125 C 10.59375 683.808594 20.339844 683.316406 29.648438 686.003906 C 39.886719 688.96875 49.039062 694.660156 59 698.335938 C 80.03125 706.066406 103.214844 703.199219 123.773438 712.863281 C 132.984375 717.191406 141.363281 722.847656 148.222656 730.375 C 153.835938 736.542969 158.957031 743.34375 166.171875 747.769531 C 174.710938 753.027344 185.285156 754.90625 194.730469 757.949219 C 204.398438 761.074219 213.765625 765.324219 222.1875 771.054688 C 230.152344 776.492188 231.65625 784.773438 233.96875 793.507812 C 236.082031 801.453125 242.289062 805.683594 249.324219 809.242188 C 257.09375 813.175781 265.652344 815.507812 273.082031 820.152344 C 282.117188 825.804688 287.886719 834.5625 292.175781 844.089844 C 295.992188 852.546875 298.777344 861.503906 303.425781 869.585938 C 308.050781 877.613281 314.433594 883.441406 322.101562 888.464844 C 326.074219 891.050781 330.148438 893.523438 333.664062 896.746094 C 337.933594 900.660156 340.464844 905.519531 342.640625 910.796875 C 345.902344 918.703125 348.964844 926.453125 356.179688 931.613281 C 369.976562 941.515625 388.515625 937.996094 404.367188 938.746094 C 420.4375 939.519531 436.761719 941.871094 452.554688 944.875 C 469.019531 947.996094 485.386719 952.425781 500.605469 959.539062 C 515.828125 966.65625 529.839844 976.65625 540.019531 990.175781 C 545.59375 997.589844 550 1005.8125 552.472656 1014.765625 C 555.082031 1024.15625 556.011719 1034.019531 559.648438 1043.109375 C 562.691406 1050.71875 567.671875 1056.550781 573.402344 1062.261719 C 579.472656 1068.3125 585.875 1074.082031 592.695312 1079.28125 C 598.605469 1083.808594 605.148438 1088.472656 612.402344 1090.527344 C 622.226562 1093.316406 632.800781 1091.617188 642.761719 1090.667969 C 654.640625 1089.539062 666.597656 1089.597656 677.175781 1095.90625 C 684.726562 1100.410156 690.515625 1107.113281 696.226562 1113.652344 C 701.863281 1120.097656 707.613281 1126.601562 714.925781 1131.207031 C 718.601562 1133.519531 722.476562 1135.394531 725.621094 1138.480469 C 728.089844 1140.890625 729.988281 1143.816406 732.082031 1146.542969 C 737.578125 1153.699219 744.121094 1158.5625 752.640625 1161.625 C 761.890625 1164.945312 771.734375 1165.914062 780.964844 1169.375 C 791.183594 1173.207031 800.609375 1178.625 809.941406 1184.199219 L 809.941406 1182.042969 Z M 809.863281 1182.042969 " fill-opacity="1" fill-rule="nonzero"/><g mask="url(#e6c944cbd6)"><g transform="matrix(1, 0, 0, 1, 0, -0.000000000000101068)"><g clip-path="url(#e0da171563)"><g clip-path="url(#6ae4621b48)"><rect x="-178.2" width="1166.4" fill="#ffffff" height="2073.599906" y="-316.799986" fill-opacity="1"/></g></g></g></g></svg>